<?xml version="1.0" standalone="no"?>
<!DOCTYPE svg PUBLIC "-//W3C//DTD SVG 20010904//EN"
 "http://www.w3.org/TR/2001/REC-SVG-20010904/DTD/svg10.dtd">
<svg version="1.0" xmlns="http://www.w3.org/2000/svg"
 width="748.000000pt" height="748.000000pt" viewBox="0 0 748.000000 748.000000"
 preserveAspectRatio="xMidYMid meet">
<metadata>
Created by potrace 1.11, written by Peter Selinger 2001-2013
</metadata>
<g transform="translate(0.000000,748.000000) scale(0.100000,-0.100000)"
fill="#000000" stroke="none">
<path d="M4870 7460 c-8 -5 -10 -10 -5 -10 6 0 17 5 25 10 8 5 11 10 5 10 -5
0 -17 -5 -25 -10z"/>
<path d="M4770 7447 c0 -5 -5 -5 -11 -2 -5 4 -19 -1 -30 -11 -10 -9 -19 -14
-19 -10 0 5 -16 -1 -35 -13 -19 -11 -35 -16 -35 -10 0 6 -7 6 -20 -1 -12 -6
-17 -16 -13 -26 5 -13 7 -13 14 -2 6 9 9 9 9 1 0 -16 -41 -44 -53 -36 -6 4 -8
0 -5 -9 4 -8 1 -15 -7 -15 -10 0 -9 12 6 50 11 27 18 55 16 61 -3 6 -8 -2 -12
-17 -4 -16 -16 -45 -25 -65 -10 -20 -16 -40 -13 -44 2 -5 -1 -8 -7 -8 -8 0 -9
7 -5 18 15 36 24 76 20 81 -3 2 -5 -2 -5 -10 0 -12 -2 -11 -10 1 -7 11 -8 5
-4 -18 5 -25 3 -32 -7 -30 -10 2 -14 -7 -14 -27 0 -16 -4 -31 -10 -32 -5 -1
-13 -10 -17 -20 -12 -26 -4 17 15 87 9 30 14 57 11 59 -4 5 -9 -9 -24 -68 -17
-64 -21 -45 -6 27 7 34 9 62 4 62 -4 0 -8 -8 -8 -17 0 -15 -2 -16 -9 -3 -6 8
-7 18 -4 24 3 5 1 6 -5 3 -7 -5 -7 -17 0 -41 7 -23 7 -42 0 -62 -11 -28 -11
-27 -7 11 4 32 3 35 -4 15 -12 -34 -13 -72 -2 -65 5 3 12 1 16 -4 3 -6 -3 -8
-15 -6 -16 3 -20 -2 -21 -23 -1 -15 -1 -30 0 -34 0 -5 -3 -8 -9 -8 -10 0 -7
22 15 123 7 31 9 59 5 62 -4 2 -5 17 -2 31 3 19 1 25 -7 20 -6 -4 -11 -13 -11
-21 0 -14 -40 -48 -186 -160 -92 -70 -172 -142 -185 -166 -7 -14 -5 -17 17
-14 14 1 31 8 37 15 9 10 9 11 0 6 -23 -13 -25 16 -2 32 13 9 25 15 27 14 1
-1 12 7 24 17 11 11 24 18 28 16 4 -3 13 2 20 10 7 8 15 13 19 11 3 -2 44 31
91 74 46 44 86 78 88 76 6 -7 -27 -119 -39 -130 -9 -8 -10 -8 -4 3 6 10 -2 8
-26 -5 -19 -10 -36 -22 -37 -27 -2 -4 -8 -5 -12 -2 -11 7 -67 -26 -68 -39 -1
-6 -8 -11 -17 -12 -8 -1 -13 2 -9 7 3 5 1 9 -3 9 -5 0 -14 -10 -22 -22 -13
-20 -14 -21 -26 -5 -11 16 -13 16 -19 2 -3 -9 -2 -13 4 -10 20 12 10 -12 -14
-34 -14 -13 -31 -21 -38 -18 -7 2 -21 0 -30 -4 -11 -6 -19 -5 -24 3 -5 7 -3 8
6 3 10 -6 12 -4 7 9 -5 11 -3 15 5 10 8 -5 9 -2 5 9 -3 10 -2 17 3 17 5 0 16
13 25 30 8 16 44 60 80 97 35 37 65 72 65 77 0 6 -8 1 -19 -10 -10 -10 -37
-36 -60 -57 -22 -21 -41 -42 -41 -48 0 -6 -4 -7 -10 -4 -5 3 -10 1 -10 -5 0
-6 -11 -5 -30 5 -17 9 -35 13 -40 10 -6 -3 -10 0 -10 7 0 11 -2 11 -9 0 -6
-11 -10 -10 -19 0 -11 14 -151 17 -183 4 -10 -5 -16 -2 -16 8 0 8 6 12 14 9 7
-3 13 1 13 8 0 7 -3 9 -6 6 -4 -3 -15 -2 -24 3 -17 9 -33 0 -42 -25 -1 -5 -7
-10 -13 -11 -5 0 -12 -2 -15 -3 -3 -2 -15 -4 -26 -5 -15 -2 -21 2 -19 13 1 9
7 15 13 14 5 -1 20 9 32 22 13 14 19 25 13 25 -6 0 -14 -7 -17 -16 -3 -8 -10
-13 -15 -9 -5 3 -31 -21 -57 -52 -26 -32 -53 -57 -61 -57 -7 1 -13 -3 -13 -9
0 -6 -2 -8 -5 -5 -5 5 47 121 70 158 10 16 17 50 11 50 -2 0 -55 -51 -118
-113 -63 -62 -119 -112 -126 -109 -9 3 -9 9 -1 24 6 11 9 22 6 24 -3 3 -15
-20 -28 -51 l-23 -57 -13 49 c-7 26 -11 59 -8 73 4 20 3 22 -5 10 -9 -12 -10
-10 -8 9 2 13 -3 26 -9 28 -13 5 -17 -51 -16 -204 1 -45 -2 -52 -21 -56 -20
-4 -20 -4 2 -6 25 -1 26 -4 11 -34 -16 -30 -15 -30 -38 -17 -12 6 -21 7 -21 1
0 -5 14 -12 30 -16 17 -4 30 -11 30 -16 0 -6 -6 -7 -12 -3 -8 5 -8 1 2 -12 8
-10 15 -20 16 -22 1 -2 4 4 8 13 4 11 2 14 -6 9 -7 -5 -8 -3 -3 6 6 10 15 5
37 -20 15 -19 28 -39 27 -45 0 -5 -3 -4 -6 3 -2 6 -9 9 -15 6 -5 -4 -3 -13 6
-23 14 -15 14 -18 1 -18 -8 0 -12 4 -10 8 3 3 -1 12 -9 18 -10 9 -15 8 -19 -3
-4 -9 -1 -18 5 -22 7 -4 6 -9 -3 -15 -9 -5 -3 -7 17 -5 32 4 45 -18 16 -29
-12 -4 -12 -8 -1 -22 8 -10 0 -7 -18 7 -18 13 -30 26 -28 31 3 4 -39 40 -93
80 -53 40 -103 77 -109 82 -9 6 -13 5 -13 -4 1 -8 23 -31 51 -52 55 -43 58
-67 3 -35 -20 11 -31 24 -25 27 6 4 1 12 -12 20 -20 13 -21 13 -8 -2 17 -22 7
-22 -27 0 -22 15 -25 15 -15 2 7 -9 10 -19 6 -22 -8 -9 31 -41 102 -82 67 -39
95 -59 95 -68 0 -4 -8 -4 -17 -1 -15 5 -15 3 1 -10 11 -9 25 -16 32 -16 7 0
16 -5 19 -10 4 -7 -3 -8 -22 -4 l-28 7 27 -22 c15 -12 44 -29 65 -37 35 -15
36 -17 19 -30 -17 -12 -17 -14 -3 -20 24 -9 23 -45 0 -38 -16 5 -16 4 1 -10
10 -8 20 -32 23 -53 2 -21 13 -83 25 -137 16 -83 18 -102 6 -110 -7 -6 -14
-18 -16 -26 -1 -8 -12 -36 -22 -62 -11 -26 -20 -53 -20 -61 0 -8 -6 -20 -14
-26 -8 -6 -16 -23 -19 -37 -4 -22 -1 -25 15 -21 15 4 17 2 9 -7 -9 -10 -4 -13
21 -11 18 1 48 5 66 9 26 5 32 3 32 -12 0 -9 7 -28 16 -40 18 -26 8 -29 -24
-6 -34 23 -38 11 -14 -45 21 -51 20 -80 -5 -116 -20 -29 -16 -35 17 -25 38 11
38 5 0 -15 -17 -9 -28 -20 -25 -25 4 -6 1 -10 -4 -10 -6 0 -11 -5 -11 -11 0
-6 15 -2 35 10 42 24 45 17 8 -21 -15 -15 -22 -28 -17 -28 6 0 21 11 33 24 13
14 31 24 41 23 15 -1 16 -5 7 -24 -6 -13 -16 -22 -24 -19 -16 7 -58 -32 -67
-61 -4 -13 -13 -23 -19 -23 -8 0 -7 -3 2 -9 7 -5 10 -14 7 -20 -10 -16 -26
-14 -26 3 0 8 -4 17 -8 20 -5 3 -6 -8 -4 -25 3 -20 -2 -37 -14 -52 -17 -19
-17 -20 -1 -8 9 8 20 11 24 7 7 -6 6 -126 -1 -133 -2 -2 -21 20 -43 49 -22 29
-52 65 -66 81 -14 15 -23 27 -19 27 3 0 -4 7 -16 16 -24 16 -30 44 -9 45 6 0
2 4 -10 9 -13 5 -23 16 -23 25 0 8 -4 15 -10 15 -5 0 -10 7 -10 15 0 8 5 15
11 15 7 0 5 10 -5 25 -15 23 -15 24 0 18 12 -4 15 -2 12 8 -6 17 -44 19 -40 2
1 -7 -3 -13 -9 -13 -7 0 -9 9 -6 23 6 20 5 21 -7 4 -10 -12 -15 -14 -18 -6 -3
8 -11 10 -24 4 -10 -4 -25 -9 -33 -11 -18 -4 -62 26 -55 37 3 5 -3 6 -12 2
-13 -5 -16 -3 -11 10 8 22 -7 21 -63 -4 -36 -16 -39 -19 -15 -15 30 5 30 5 5
-6 -14 -7 -29 -18 -33 -25 -4 -7 -16 -13 -25 -12 -14 0 -14 2 -2 6 22 9 31 26
18 35 -7 4 16 20 55 39 66 31 87 47 46 34 -15 -5 -19 -4 -15 4 10 16 3 14 -44
-13 -23 -13 -36 -26 -29 -28 9 -3 8 -6 -4 -11 -9 -3 -17 -2 -17 4 0 6 -5 7
-10 4 -6 -4 -7 -11 -4 -17 5 -7 1 -9 -9 -5 -10 3 -17 2 -17 -3 0 -6 -9 -10
-21 -10 -13 0 -18 -4 -13 -12 6 -10 5 -10 -7 -1 -8 7 -27 10 -41 8 -15 -3 -31
1 -38 10 -7 8 -17 12 -22 9 -5 -4 -3 8 6 24 18 36 20 46 6 37 -5 -3 -3 10 5
29 13 30 13 35 -1 40 -11 4 -23 -12 -46 -59 -35 -74 -49 -83 -18 -11 12 25 18
51 15 56 -3 5 -1 18 5 27 9 15 10 14 5 -7 -5 -22 -5 -23 6 -7 14 24 -1 42 -22
25 -9 -7 -28 -43 -43 -80 -16 -38 -31 -68 -35 -68 -3 0 -17 12 -30 25 -13 14
-48 40 -77 57 -52 32 -76 58 -51 58 7 0 30 -12 52 -27 22 -15 34 -19 26 -10
-7 9 -49 36 -92 59 -43 22 -77 45 -76 50 1 5 -36 27 -83 48 l-85 39 -110 -5
c-170 -9 -180 -8 -285 14 -61 14 -223 -48 -233 -89 -3 -11 -1 -17 4 -14 12 8
49 -13 49 -28 0 -8 -4 -7 -10 3 -7 12 -11 10 -18 -10 -8 -21 -6 -26 9 -28 20
-4 22 -13 21 -74 0 -21 6 -42 14 -49 13 -11 14 -9 9 14 -6 24 -5 26 11 20 17
-6 17 -5 5 10 -7 9 -11 17 -8 17 3 0 2 14 -3 31 -8 28 -7 29 7 17 14 -11 16
-11 11 3 -6 15 8 39 22 39 8 0 2 -117 -6 -140 -4 -12 -3 -13 7 -2 19 18 27 15
32 -10 3 -13 3 -5 2 17 -2 43 36 117 50 96 3 -6 3 -11 -2 -11 -4 0 -1 -5 7
-10 12 -8 13 -13 2 -30 -16 -27 -15 -35 3 -20 20 17 21 -9 0 -36 -22 -29 -18
-37 8 -14 19 19 22 19 25 5 2 -9 -7 -29 -20 -43 -40 -45 11 -3 70 58 45 47 51
50 40 25 -17 -41 -70 -128 -82 -137 -7 -5 -7 -8 1 -8 6 0 19 10 27 22 20 28
20 20 1 -26 -10 -24 -12 -36 -4 -36 6 0 9 -7 5 -15 -13 -35 5 -10 43 59 22 41
46 78 53 82 6 4 1 -10 -12 -32 -22 -37 -23 -38 -2 -20 17 15 14 5 -15 -53 -40
-81 -39 -106 2 -36 33 55 44 52 21 -5 -9 -22 -16 -55 -15 -73 0 -29 2 -27 13
16 7 27 19 54 26 60 10 10 11 8 5 -8 -18 -49 -23 -75 -14 -75 5 0 9 7 9 16 0
9 11 37 24 63 14 25 43 85 65 134 22 48 43 87 46 87 3 0 4 -3 2 -7 -35 -62
-75 -170 -81 -218 -13 -105 -16 -181 -6 -165 10 15 16 -4 24 -70 2 -19 3 1 3
45 -1 55 5 97 18 135 l19 55 6 -35 c3 -22 -1 -53 -12 -83 -10 -26 -18 -62 -17
-80 l1 -32 10 35 c14 51 24 56 20 8 -3 -28 -1 -39 7 -34 6 4 11 2 11 -3 0 -6
-6 -11 -12 -11 -10 0 -10 -2 0 -9 12 -7 19 -35 24 -103 1 -16 6 -28 10 -28 8
0 12 32 10 78 -1 12 3 20 8 17 6 -4 10 -18 10 -32 0 -57 12 -10 17 63 4 77 15
111 79 239 14 28 22 39 19 25 -3 -14 -8 -45 -11 -70 -4 -25 -17 -75 -29 -111
-13 -36 -27 -87 -31 -115 -10 -66 -11 -153 -1 -147 4 2 7 24 7 48 0 55 19 71
21 18 l2 -38 6 40 c4 26 11 40 21 40 9 0 15 -13 18 -40 2 -22 8 -47 13 -55 6
-10 7 -3 3 20 l-6 35 17 -23 c11 -14 15 -35 13 -53 -3 -16 0 -33 5 -36 6 -3 7
-1 3 5 -11 18 11 23 28 6 9 -9 16 -32 16 -55 0 -21 3 -39 8 -39 4 0 7 62 8
138 0 127 2 143 32 227 l32 90 -5 -55 c-2 -30 -11 -75 -18 -100 -9 -28 -14
-97 -15 -180 -1 -132 -2 -135 -24 -142 -13 -4 -102 -26 -198 -48 -96 -22 -211
-52 -255 -65 -119 -36 -147 -43 -191 -49 -11 -2 -27 -7 -34 -11 -7 -4 -26 -10
-42 -11 -17 -2 -42 -10 -56 -19 -15 -8 -52 -27 -82 -42 -30 -16 -82 -46 -116
-68 -33 -22 -81 -51 -107 -65 -26 -13 -47 -28 -47 -33 0 -4 -4 -6 -10 -2 -5 3
-19 -4 -30 -15 -11 -11 -25 -18 -29 -15 -5 2 -11 -2 -15 -10 -3 -8 -15 -15
-26 -15 -12 0 -19 -4 -16 -9 3 -5 -12 -21 -34 -36 -22 -15 -49 -44 -61 -64
-19 -33 -19 -34 -2 -19 19 17 19 17 17 -15 -3 -32 -3 -32 7 5 7 26 15 35 25
31 9 -3 11 -10 6 -17 -12 -14 -11 -46 0 -46 5 0 6 -5 2 -12 -4 -7 -3 -8 4 -4
9 5 9 13 2 26 -13 25 -13 27 5 34 9 3 15 1 14 -7 -4 -33 5 -37 10 -4 l6 38 22
-20 c13 -13 28 -18 39 -14 14 5 16 1 12 -26 -3 -17 -1 -28 4 -23 5 5 9 25 10
45 1 20 5 34 9 31 5 -3 12 8 16 23 l7 28 7 -25 c7 -24 7 -24 9 -2 4 37 5 40
13 48 6 7 12 -42 8 -73 -1 -7 2 -13 7 -13 5 0 15 20 21 44 12 47 31 71 31 38
0 -11 -7 -38 -15 -61 -8 -23 -10 -39 -5 -36 6 3 10 13 10 21 0 8 4 14 10 14 5
0 7 -7 4 -15 -4 -8 -4 -15 -1 -15 3 0 15 29 27 65 19 56 24 63 36 51 8 -8 14
-24 14 -35 0 -11 5 -23 12 -27 7 -4 8 -3 4 4 -4 7 -2 12 3 12 6 0 11 -7 11
-15 0 -8 4 -15 9 -15 5 0 12 -8 14 -17 3 -10 5 -4 6 13 0 17 8 37 16 44 17 14
21 35 4 25 -6 -4 -5 2 2 13 17 28 43 18 26 -10 -9 -16 -9 -22 1 -25 6 -3 10
-9 7 -13 -3 -5 -2 -11 3 -14 4 -2 8 20 8 51 -1 30 2 60 6 66 4 7 8 -10 8 -37
0 -39 3 -47 12 -38 7 7 13 25 14 40 1 36 14 63 25 56 5 -3 9 3 10 13 1 13 3
11 9 -7 7 -21 8 -22 9 -5 1 11 8 31 16 45 14 25 14 25 15 -13 0 -23 4 -36 10
-32 6 4 10 -8 10 -29 0 -39 14 -48 23 -15 3 12 10 18 15 15 13 -8 35 48 28 71
-3 10 -1 25 5 33 9 12 10 11 5 -5 -5 -16 -3 -16 14 5 l19 25 -10 -40 c-6 -22
-15 -48 -20 -57 -6 -12 -6 -18 1 -18 5 0 10 6 10 13 1 6 12 26 26 42 l26 30
-6 -36 c-4 -20 -2 -47 3 -60 9 -23 10 -23 11 6 1 41 11 76 20 70 4 -2 7 17 7
44 0 27 3 54 7 60 13 20 23 3 20 -31 -2 -18 -5 -79 -7 -136 -3 -85 -1 -100 10
-89 7 7 15 31 17 54 2 23 9 49 15 60 8 14 11 6 12 -42 l2 -60 11 57 c14 72 26
84 27 27 0 -24 3 -38 6 -31 2 6 8 10 13 7 4 -2 6 19 5 49 -2 29 1 59 5 66 11
18 33 -53 33 -107 0 -23 4 -40 9 -37 5 3 6 40 4 82 -5 67 -4 75 8 59 8 -10 20
-42 26 -70 15 -64 34 -98 26 -47 -14 88 -18 165 -8 155 13 -13 52 -131 52
-159 0 -16 2 -18 9 -7 5 8 8 19 6 25 -2 6 -6 25 -9 41 -6 28 -5 29 9 11 17
-23 19 -18 5 18 -9 25 -5 56 9 56 3 0 14 -12 24 -27 l18 -28 -5 40 c-4 28 -2
35 4 25 5 -8 10 -23 10 -32 0 -10 4 -18 9 -18 8 0 7 22 -3 68 -5 25 11 31 21
6 3 -8 11 -13 18 -10 9 3 15 -10 20 -40 3 -24 10 -44 15 -44 5 0 8 6 6 13 -12
38 -15 67 -7 67 5 0 12 -11 15 -25 4 -14 10 -25 15 -25 6 0 6 12 1 30 -5 17
-5 30 0 30 13 0 40 -47 40 -70 0 -11 5 -20 10 -20 6 0 15 -10 20 -22 8 -21 9
-19 10 12 1 31 2 33 10 13 5 -13 12 -23 16 -23 3 0 4 7 1 14 -4 10 -1 13 8 9
8 -3 12 -10 8 -17 -4 -6 0 -5 9 2 13 10 14 20 7 44 -11 40 -6 45 14 16 8 -13
27 -36 41 -53 l27 -30 -10 27 c-6 15 -19 45 -31 67 -32 64 -23 61 16 -4 30
-51 36 -50 16 4 -3 9 -1 12 6 7 7 -4 12 -14 12 -22 0 -8 4 -13 9 -9 5 3 16 -4
24 -16 23 -32 28 -8 7 38 -10 22 -21 60 -24 84 l-7 44 21 -37 c20 -37 38 -52
26 -23 -12 33 5 12 35 -40 17 -30 33 -55 35 -55 3 0 0 9 -6 19 -15 29 -12 39
5 17 10 -13 15 -15 15 -6 0 10 4 9 18 -3 29 -26 35 -20 13 12 -12 16 -21 33
-21 38 0 4 -11 25 -25 45 -14 20 -25 39 -25 42 0 16 18 2 44 -34 28 -38 51
-46 39 -13 -4 11 -3 14 5 9 7 -4 12 -33 13 -69 0 -37 3 -55 8 -43 6 15 10 10
21 -25 13 -41 15 -42 18 -16 2 15 7 25 12 22 4 -3 2 14 -5 38 -7 23 -11 51 -9
62 2 11 -8 37 -22 58 -28 42 -38 77 -23 77 5 0 29 -42 54 -92 35 -73 44 -86
41 -59 -3 30 -2 32 10 16 7 -10 11 -21 9 -26 -3 -4 -1 -10 4 -13 5 -4 7 7 5
24 -6 38 -1 38 37 -2 34 -36 29 -21 -9 30 -13 17 -20 32 -15 32 6 0 19 -11 29
-25 10 -14 22 -25 26 -25 13 0 2 43 -13 49 -16 7 -19 42 -4 38 6 -1 9 -4 8 -7
-1 -3 9 -6 22 -6 23 -2 23 -1 7 32 -8 19 -20 34 -24 34 -5 0 -7 4 -4 9 3 5 -4
20 -15 35 -14 18 -16 26 -7 26 10 1 9 4 -2 13 -8 7 -22 21 -30 31 -15 19 -15
19 15 0 17 -10 33 -23 37 -28 4 -6 10 -7 14 -4 4 4 -7 20 -24 36 l-31 29 57
-3 c111 -7 148 -13 227 -34 89 -25 118 -37 113 -49 -2 -5 -33 -41 -70 -81 -38
-40 -68 -78 -68 -85 0 -7 -7 -18 -15 -25 -8 -7 -15 -21 -15 -31 0 -11 -5 -18
-12 -17 -6 2 -14 -6 -16 -16 -6 -27 -112 -191 -235 -362 -12 -17 -35 -51 -50
-75 -15 -24 -45 -69 -66 -98 -21 -30 -37 -61 -34 -68 3 -7 -5 -30 -18 -50 -16
-28 -22 -52 -21 -92 1 -38 -4 -62 -17 -80 -24 -35 -34 -161 -34 -461 0 -223 2
-240 27 -335 15 -55 37 -114 49 -132 27 -40 34 -35 13 8 -18 35 -21 54 -5 26
6 -9 14 -15 19 -12 5 3 12 0 16 -6 4 -8 3 -9 -4 -5 -8 5 -10 1 -5 -10 6 -16 7
-16 16 3 6 15 2 35 -17 77 -37 82 -32 88 14 18 22 -34 42 -62 45 -62 3 0 -13
33 -35 74 -52 96 -51 117 1 35 23 -35 46 -68 51 -74 14 -14 -19 51 -49 97 -17
24 -23 47 -21 70 3 32 4 31 51 -49 26 -44 55 -87 64 -95 13 -10 12 -5 -4 22
-11 19 -24 46 -28 60 -7 24 -7 24 9 5 15 -19 15 -19 12 10 -1 17 -8 40 -14 52
-47 87 -29 90 25 4 39 -61 52 -73 67 -64 5 4 7 -1 3 -10 -3 -9 -3 -19 2 -21
22 -14 -5 104 -36 151 -14 22 -14 25 -2 16 9 -7 20 -9 24 -5 5 4 5 0 0 -8 -6
-11 -5 -12 4 -4 8 8 9 18 2 37 -18 47 -4 29 39 -48 22 -42 45 -73 50 -70 6 4
10 1 10 -6 0 -7 3 -10 6 -6 3 3 -10 45 -30 93 -36 88 -42 121 -12 67 15 -27
16 -27 12 -3 -2 14 -7 32 -11 41 -3 10 -2 20 4 24 7 4 8 0 4 -11 -5 -14 -2
-16 16 -11 14 3 24 0 28 -9 3 -8 10 -14 15 -14 6 0 17 -8 24 -17 13 -17 14
-17 7 2 -6 18 -5 19 11 5 12 -9 7 4 -13 36 -17 28 -31 56 -31 63 0 17 21 13
36 -6 9 -12 13 -13 14 -5 0 7 -10 24 -22 37 -13 13 -31 35 -41 50 -10 14 -23
22 -29 19 -6 -4 -8 -3 -5 3 4 6 -7 44 -24 85 -42 98 -50 126 -37 134 6 4 25
-8 41 -27 77 -87 127 -139 127 -132 0 4 -16 28 -35 52 -33 42 -46 69 -26 56 6
-3 -2 15 -15 40 -14 25 -24 50 -22 56 2 6 14 -8 26 -30 12 -23 32 -60 45 -82
l22 -42 5 28 5 29 27 -41 c14 -22 33 -40 41 -40 14 0 14 3 0 24 -8 13 -13 23
-9 23 3 0 1 11 -4 25 -9 24 2 36 15 15 3 -5 11 -10 17 -10 6 0 4 8 -5 18 -27
29 -22 43 11 32 23 -8 24 -8 8 3 -36 22 -57 48 -50 59 5 7 12 5 21 -7 12 -18
13 -18 13 -1 0 13 4 16 13 10 7 -5 5 -2 -5 8 -22 20 -23 29 -3 22 8 -4 15 -2
15 4 0 13 -21 29 -43 33 -11 2 -25 20 -33 39 l-14 35 20 -24 c23 -27 25 -23 8
14 -6 14 -15 25 -20 25 -5 0 -6 5 -3 10 3 5 1 10 -6 10 -10 0 -10 3 -1 12 7 7
12 19 12 28 0 8 14 29 30 47 17 18 30 37 30 44 0 6 7 8 16 5 12 -4 15 -2 10 9
-7 19 3 47 15 39 14 -8 11 3 -12 48 -16 31 -18 43 -9 48 7 4 10 12 6 18 -3 6
-1 14 6 19 17 10 39 13 34 4 -3 -4 -1 -13 5 -21 7 -12 9 -9 10 10 1 25 1 25 9
-3 5 -15 7 -45 5 -67 -4 -47 8 -53 21 -9 9 30 31 38 27 9 -2 -8 -5 -29 -7 -47
-2 -18 -7 -42 -11 -55 -6 -22 -5 -22 9 2 9 14 15 34 16 46 0 11 7 29 15 40 14
17 15 13 10 -50 -3 -39 -12 -83 -20 -99 -13 -26 -13 -28 0 -17 21 17 19 1 -2
-23 -11 -13 -12 -17 -4 -12 11 6 13 4 8 -8 -4 -12 -2 -14 10 -10 13 5 13 3 4
-15 -14 -27 -14 -39 1 -24 15 15 32 16 23 2 -13 -21 10 -9 42 22 18 18 33 29
33 25 0 -3 -9 -15 -20 -25 -23 -21 -34 -59 -20 -67 5 -3 12 0 16 6 3 6 1 15
-5 19 -9 5 -7 11 5 21 12 9 15 10 10 2 -14 -24 5 -35 27 -16 l22 18 -22 -25
c-29 -35 -94 -156 -86 -164 12 -12 25 -6 19 9 -3 9 12 33 41 63 43 44 42 36
-2 -16 -11 -13 -20 -27 -20 -30 -2 -24 -19 -53 -29 -49 -6 3 -12 -3 -12 -13 0
-10 4 -16 8 -14 14 9 8 -7 -13 -38 -12 -16 -18 -32 -15 -35 3 -3 1 -12 -5 -20
-14 -16 3 -17 19 -1 20 20 13 -1 -13 -39 -26 -38 -26 -61 0 -27 14 18 14 17 9
-13 -4 -18 -3 -33 2 -33 5 0 35 26 67 58 l59 57 -56 -70 c-30 -38 -56 -74 -56
-79 0 -4 15 3 34 18 19 14 37 26 40 26 7 0 -66 -104 -76 -108 -5 -2 -8 -13 -7
-25 0 -17 2 -18 7 -7 25 56 82 104 82 69 0 -6 -5 -7 -12 -3 -6 4 -8 3 -5 -3 4
-6 2 -24 -3 -42 -5 -19 -5 -29 1 -26 5 4 9 15 9 25 0 10 4 21 9 24 4 3 4 -17
-1 -44 -6 -33 -5 -56 2 -69 6 -11 10 -24 9 -28 -3 -19 1 -66 6 -61 5 5 11 52
15 113 2 23 5 16 15 -28 15 -68 28 -88 21 -31 -3 21 -3 33 0 25 5 -11 8 -11
15 0 7 12 9 11 9 -1 0 -12 2 -13 9 -1 6 9 13 -1 24 -35 15 -47 16 -98 5 -209
-3 -27 -3 -38 -1 -22 2 15 8 27 13 27 4 0 6 9 3 19 -3 11 0 28 6 38 8 15 9 11
7 -17 -2 -19 -6 -42 -9 -50 -3 -8 -8 -33 -12 -55 -4 -29 -3 -36 4 -25 6 8 11
29 12 45 2 23 4 20 9 -15 l7 -45 2 40 c4 62 10 100 20 126 8 19 9 12 6 -31 -5
-61 1 -57 14 11 8 39 9 34 10 -46 1 -49 3 -137 6 -195 4 -97 6 -524 3 -650 -2
-63 12 -595 16 -655 10 -126 18 -223 22 -247 5 -36 14 -319 19 -605 1 -127 6
-236 9 -242 3 -5 -1 -56 -10 -113 -9 -57 -17 -112 -19 -123 -1 -12 -11 -50
-20 -85 -10 -36 -20 -80 -23 -98 l-4 -32 173 2 174 3 1 35 c0 19 -12 64 -27
100 -15 36 -30 83 -33 105 -4 22 -11 67 -17 99 -6 33 -12 179 -14 325 -2 247
-8 401 -21 561 -15 198 -22 719 -14 1120 1 53 -10 192 -16 202 -6 9 -13 136
-18 326 -3 102 -1 140 6 135 8 -4 9 0 4 13 -4 10 -10 33 -13 49 -6 28 -5 29
13 15 18 -15 18 -14 0 14 -10 16 -13 25 -7 22 15 -10 14 7 -1 22 -9 9 -9 15
-1 23 10 10 16 5 73 -71 l18 -25 -5 27 c-4 20 6 46 35 97 31 54 37 71 26 75
-8 3 -14 14 -14 25 0 10 -16 42 -35 71 -19 29 -33 56 -30 60 3 5 -9 7 -27 5
-23 -3 -29 -2 -18 5 12 7 12 12 2 22 -6 6 -12 19 -12 28 0 13 1 13 10 0 5 -8
10 -10 11 -5 0 6 5 -1 9 -15 6 -19 8 -13 7 24 -2 51 17 75 29 39 6 -16 32 -76
42 -97 2 -4 -6 -6 -19 -2 -21 5 -21 4 2 -6 20 -8 32 -26 49 -77 67 -197 175
-460 182 -444 3 10 7 14 7 8 1 -5 10 -25 22 -44 15 -25 23 -31 29 -21 6 9 10
7 15 -9 3 -12 12 -20 18 -19 7 1 36 -22 66 -52 l53 -55 -49 65 c-65 86 -73
102 -32 64 66 -59 73 -58 17 3 -32 34 -58 64 -58 68 0 10 34 -13 59 -40 13
-14 33 -31 45 -36 18 -9 17 -7 -4 13 -67 63 -71 80 -8 36 19 -13 29 -15 34 -7
4 8 3 9 -4 5 -7 -4 -12 -1 -12 8 0 20 1 20 47 -5 l38 -21 -28 22 c-15 12 -25
25 -22 30 3 4 -26 27 -64 51 -48 29 -76 54 -88 78 -10 20 -24 42 -30 49 -7 7
-13 21 -13 30 0 9 -23 42 -50 72 -27 30 -50 63 -50 73 0 10 -7 20 -15 24 -17
6 -70 102 -61 110 2 3 14 -13 26 -36 11 -23 23 -41 26 -41 3 0 2 6 -2 13 -6 9
-5 9 8 0 8 -7 18 -10 22 -6 4 4 4 0 1 -9 -4 -10 7 -29 31 -54 31 -33 33 -34
14 -7 -12 17 -20 36 -16 41 3 5 -14 32 -39 60 -29 32 -43 56 -39 66 6 16 24
13 24 -5 0 -6 -5 -7 -12 -3 -7 5 -8 3 -4 -5 5 -7 11 -10 14 -7 3 3 12 0 21 -7
14 -11 15 -10 1 7 -14 18 -13 19 4 13 17 -7 17 -6 5 10 -8 10 -19 24 -26 30
-6 7 -27 39 -47 70 -19 32 -44 64 -55 71 -12 7 -21 17 -21 24 0 6 9 3 20 -7
11 -10 23 -15 26 -12 9 9 -32 58 -41 49 -5 -4 -5 -2 -2 4 4 7 0 17 -8 24 -8 7
-15 22 -15 33 0 19 2 19 28 -6 15 -15 31 -27 34 -27 4 0 -13 19 -37 43 -34 32
-45 52 -50 86 l-7 44 48 -28 c27 -16 59 -35 72 -43 46 -30 20 -3 -32 33 -50
34 -75 72 -66 100 1 6 2 18 2 28 -1 11 4 17 11 14 7 -2 20 6 30 19 16 21 16
24 0 32 -14 9 -14 10 6 17 16 5 20 12 16 26 -5 15 -2 18 12 13 17 -5 17 -5 1
9 -10 8 -18 17 -18 21 0 12 22 6 38 -12 10 -9 14 -13 10 -8 -13 16 -9 31 4 18
18 -18 30 -14 23 8 -7 23 4 26 24 8 12 -11 13 -9 6 7 -4 11 -8 27 -8 35 0 8
-5 18 -11 22 -7 5 -5 8 5 8 11 0 18 -12 22 -37 8 -45 34 -86 49 -77 7 5 9 1 5
-9 -4 -10 -2 -28 3 -42 6 -15 6 -26 0 -30 -6 -4 -9 -23 -9 -43 l2 -37 7 40 c4
22 8 32 9 22 0 -12 5 -16 14 -11 9 6 9 5 0 -7 -7 -9 -9 -20 -3 -29 6 -9 4 -20
-3 -29 -9 -12 -9 -13 1 -7 18 11 38 -44 20 -57 -9 -6 -8 -7 5 -3 13 4 17 0 17
-20 0 -14 4 -23 10 -19 11 7 3 53 -12 72 -6 7 -8 20 -4 28 3 9 2 13 -4 10 -17
-10 -11 11 9 33 19 22 37 30 26 12 -12 -20 -15 -91 -3 -84 6 4 8 3 4 -4 -3 -6
-2 -13 3 -16 6 -4 8 11 7 36 -3 40 0 46 57 105 33 35 58 65 55 68 -3 3 -11 -1
-18 -10 -7 -8 -17 -15 -23 -15 -5 0 0 9 12 19 13 11 29 17 37 14 10 -4 -2 -24
-44 -72 -70 -79 -88 -107 -42 -66 l34 30 -22 -38 c-12 -21 -22 -45 -22 -53 0
-9 18 19 41 63 40 78 79 129 79 105 0 -7 -26 -56 -59 -110 -62 -103 -83 -151
-61 -137 7 5 11 4 8 -1 -4 -5 -9 -34 -13 -64 -4 -30 -9 -59 -13 -64 -3 -5 0
-6 6 -2 7 4 12 17 13 29 1 20 2 20 8 -3 6 -18 8 -9 7 30 0 72 27 129 99 205
61 66 60 51 -5 -35 -22 -30 -43 -66 -46 -80 -3 -14 -9 -41 -14 -60 -15 -57
-18 -102 -11 -150 7 -42 8 -39 15 43 9 95 27 131 106 219 l40 43 -56 -108
c-31 -60 -53 -111 -50 -114 3 -4 11 8 17 25 6 18 14 30 17 28 8 -5 7 -104 -1
-126 -7 -20 -4 -79 4 -74 4 2 10 -3 13 -12 11 -28 18 -8 11 30 -4 21 -11 33
-18 29 -6 -4 -7 -1 -1 8 5 8 14 28 20 45 10 31 95 146 101 140 2 -2 -7 -28
-21 -57 -38 -86 -57 -132 -53 -136 2 -1 9 9 17 25 56 119 75 145 125 174 20
10 20 10 -1 -13 -60 -70 -124 -197 -113 -224 6 -17 8 -14 8 12 1 21 20 60 58
117 31 47 58 84 60 82 2 -2 -17 -42 -42 -90 -43 -84 -56 -124 -35 -111 6 3 10
16 10 29 0 22 29 71 30 51 0 -6 -5 -16 -11 -22 -8 -8 -8 -16 0 -30 10 -17 10
-17 11 3 0 11 11 35 25 54 14 19 25 38 25 43 0 15 51 79 57 73 3 -3 1 -11 -4
-18 -6 -7 -22 -45 -37 -83 -27 -72 -31 -114 -16 -150 6 -14 8 -9 5 20 -3 39
20 115 35 115 4 0 7 -18 6 -40 0 -22 5 -45 12 -52 10 -10 11 -6 6 19 -5 27 0
41 31 83 40 54 64 67 42 23 -17 -34 -12 -84 14 -134 17 -33 17 -44 7 -88 -10
-45 -28 -70 -28 -39 0 6 -3 8 -6 5 -4 -4 -1 -13 6 -22 10 -12 10 -25 1 -59
-12 -49 -14 -83 -5 -73 6 5 22 64 28 102 6 39 27 107 32 103 3 -4 -2 -40 -21
-136 -2 -12 0 -20 4 -17 5 2 11 27 15 54 7 55 24 79 20 28 -2 -18 -1 -24 2
-14 3 9 10 17 15 17 6 0 7 -4 4 -10 -3 -6 -2 -10 4 -10 5 0 13 9 16 20 4 11
11 18 16 15 5 -4 9 0 9 8 0 8 7 20 15 27 13 11 14 8 9 -21 -4 -26 -3 -31 5
-19 9 11 11 -3 8 -57 -3 -40 -1 -73 4 -73 5 0 8 3 8 8 -1 4 -1 26 0 50 1 30 5
42 16 42 9 0 12 6 9 18 -5 14 -4 15 5 2 6 -8 11 -31 12 -50 l1 -35 7 30 c4 17
1 54 -7 84 -7 29 -11 55 -9 57 2 2 14 -16 26 -41 12 -25 24 -45 27 -45 6 0
-36 103 -57 137 -12 19 -20 53 -22 87 -1 31 -5 56 -9 56 -5 0 -8 11 -8 24 0
14 -13 35 -33 52 -18 16 -55 58 -81 93 -62 82 -66 87 -98 120 -16 16 -28 31
-28 35 0 4 -14 21 -30 39 -32 33 -44 63 -38 93 6 33 25 26 21 -8 -3 -24 -2
-29 5 -19 8 11 15 5 31 -25 16 -30 20 -33 17 -14 -2 14 -9 38 -15 54 -16 41
-6 44 15 4 9 -18 19 -27 21 -21 3 7 -11 41 -29 75 -38 72 -42 95 -13 90 17 -3
17 -2 4 14 -30 37 -122 119 -167 150 -55 37 -182 166 -182 185 0 9 4 9 18 -2
10 -8 8 -4 -5 8 -12 12 -37 38 -55 59 l-33 39 30 -18 c78 -48 -151 142 -257
213 l-37 25 22 25 c12 14 15 19 7 13 -19 -17 -35 -17 -24 0 5 7 1 5 -8 -5 -10
-12 -19 -15 -23 -8 -3 6 -10 8 -15 5 -4 -3 -13 1 -19 9 -8 10 -6 17 12 32 22
19 22 19 4 -2 -9 -11 -14 -24 -10 -27 3 -4 16 6 27 22 12 15 27 26 35 23 9 -3
12 0 8 10 -5 15 9 38 24 38 4 0 10 -9 12 -20 4 -18 5 -18 5 2 0 40 2 42 16 22
10 -13 14 -15 13 -4 -4 31 18 19 23 -12 3 -18 10 -34 17 -35 9 -2 10 4 3 22
-5 14 -9 29 -8 33 0 4 -4 18 -10 32 -6 14 -11 19 -11 12 -2 -27 -25 -5 -29 27
-2 22 0 31 7 26 6 -3 11 -13 11 -21 0 -8 4 -14 8 -14 5 0 7 15 4 33 -3 26 -2
30 9 20 12 -12 19 -37 20 -75 0 -9 7 -22 15 -29 8 -6 14 -17 14 -24 0 -16 27
-39 32 -28 3 4 3 2 1 -5 -4 -18 6 -34 17 -27 5 3 6 15 0 29 -4 12 -4 29 0 36
5 8 4 22 -1 32 -5 10 -6 18 -2 18 18 0 29 -17 31 -44 1 -16 5 -32 8 -35 3 -3
3 23 0 58 -4 60 -4 62 10 36 8 -15 14 -35 14 -44 0 -9 8 -37 18 -63 17 -46 19
-47 36 -30 11 9 16 12 12 5 -3 -6 0 -14 6 -16 8 -3 6 -6 -4 -6 -20 -1 -24 -17
-7 -23 5 -2 11 -19 11 -38 1 -19 3 -29 5 -22 3 6 8 10 12 8 11 -7 10 27 -2 42
-5 7 -7 15 -3 19 3 3 6 1 6 -5 0 -7 7 -12 15 -12 8 0 15 -6 15 -14 0 -8 5 -18
10 -21 7 -4 9 5 5 26 -7 40 4 94 16 82 5 -5 12 -33 16 -62 7 -65 19 -75 14
-13 -4 61 9 49 15 -14 7 -61 20 -78 22 -28 1 20 4 39 7 42 5 5 8 -35 7 -88 -1
-16 3 -11 10 15 6 22 15 42 19 45 4 3 7 25 6 49 -2 23 1 45 6 48 4 2 6 20 3
38 -3 19 -1 37 4 40 9 5 13 -32 13 -117 0 -10 5 -14 13 -11 9 3 14 -2 14 -17
0 -11 -4 -18 -10 -15 -5 3 -10 -1 -10 -9 0 -9 5 -16 10 -16 6 0 10 -11 10 -25
0 -14 4 -25 8 -25 5 0 13 -12 19 -27 10 -25 10 -24 6 15 -5 48 2 55 18 15 7
-16 13 -23 16 -15 3 6 8 10 12 8 3 -2 5 14 4 37 -1 23 1 32 3 19 4 -14 10 -20
17 -15 8 4 7 1 -1 -9 -8 -10 -9 -19 -4 -22 6 -3 13 5 16 19 10 39 22 29 22
-17 0 -23 5 -43 10 -45 8 -3 10 17 7 57 -2 34 1 59 5 56 5 -3 19 -33 32 -67
13 -36 25 -57 29 -50 8 13 22 -9 46 -74 l15 -40 -2 37 c-2 20 0 39 3 43 3 3 3
27 -2 53 -4 26 -6 63 -4 82 2 19 4 41 4 48 1 7 5 11 10 8 5 -4 15 -39 22 -79
14 -81 23 -101 26 -54 1 34 11 106 19 146 9 44 23 2 18 -53 -6 -62 25 -212 36
-181 4 11 6 34 3 50 -4 24 -2 27 7 15 9 -12 11 -8 6 20 -5 28 -3 31 5 17 6
-10 8 -29 5 -43 -4 -15 -2 -24 5 -24 7 0 10 16 7 45 -4 56 8 45 17 -15 4 -24
11 -52 15 -61 5 -9 7 -19 4 -21 -3 -3 2 -8 10 -11 11 -4 13 1 9 25 -3 18 -1
28 5 24 6 -3 13 -24 17 -46 4 -22 11 -42 16 -45 5 -4 6 1 3 9 -6 17 12 56 26
56 6 0 10 -9 10 -19 0 -11 4 -23 10 -26 8 -5 7 22 -4 65 0 3 4 6 9 8 6 2 19
-24 29 -57 11 -34 23 -61 26 -61 3 0 4 28 2 63 -4 60 8 75 16 19 2 -15 6 -29
10 -32 4 -3 7 -11 7 -19 0 -8 7 -16 15 -18 13 -4 13 -3 0 6 -12 9 -13 13 -2
20 11 7 11 9 -1 14 -8 3 -18 26 -22 54 -12 73 -12 83 -3 83 4 0 9 -6 10 -12 4
-39 6 -56 7 -86 0 -18 5 -31 10 -28 5 3 7 16 4 29 -3 17 -2 19 6 7 5 -9 15
-56 21 -105 14 -101 24 -128 19 -47 -2 28 -3 52 -1 52 2 0 9 -15 17 -32 l15
-33 -6 45 c-3 25 -7 55 -10 68 -2 12 0 22 5 22 11 0 21 -25 21 -53 0 -16 3
-18 9 -9 8 13 0 72 -18 136 -4 17 -4 40 0 51 7 17 8 16 8 -7 1 -16 6 -28 11
-28 6 0 11 -8 11 -17 1 -10 5 0 9 22 l7 40 2 -48 c2 -65 21 -51 21 16 0 37 3
48 10 37 5 -8 10 -26 10 -40 0 -14 5 -32 11 -40 7 -11 9 2 7 47 -3 67 4 73 22
15 7 -20 16 -41 21 -46 5 -5 4 5 -1 22 -6 18 -14 46 -19 62 -13 40 -5 38 14
-2 l14 -33 -5 30 c-3 17 -9 39 -14 50 -10 23 -19 97 -10 89 3 -3 14 -42 26
-87 16 -63 23 -77 28 -59 10 31 26 28 27 -5 1 -16 3 -35 4 -43 1 -8 3 -34 4
-58 0 -24 5 -41 10 -38 5 3 7 16 3 28 -4 16 -2 19 8 13 10 -6 11 -2 7 16 -3
13 -8 42 -12 64 -5 33 -4 37 5 22 7 -11 14 -33 17 -49 9 -57 23 -76 17 -23 -4
28 -8 54 -11 58 -3 4 0 14 7 22 8 10 8 15 -1 21 -7 4 -9 3 -5 -4 3 -6 3 -13
-2 -16 -7 -4 -46 153 -39 160 2 2 11 -23 21 -56 10 -33 21 -60 25 -60 16 0 33
-57 38 -130 3 -41 11 -88 19 -105 11 -24 12 -25 7 -5 -3 14 -7 52 -9 85 -2 56
-5 82 -20 175 -13 82 -16 115 -10 109 12 -11 37 -163 44 -263 6 -86 9 -99 26
-102 17 -2 18 3 13 69 -5 71 -5 71 5 20 6 -29 14 -53 18 -53 3 0 6 40 6 90 -1
49 2 90 6 90 10 0 24 -78 23 -127 -1 -24 3 -43 8 -43 5 0 3 -8 -4 -17 -10 -11
-10 -14 -1 -9 9 5 12 -3 12 -29 0 -20 4 -34 8 -31 11 6 17 66 17 168 0 47 3
84 6 82 4 -2 12 -41 18 -86 17 -116 23 -154 40 -223 l9 -40 2 55 2 55 12 -34
c10 -27 14 -31 19 -18 9 23 31 22 25 -1 -3 -10 0 -19 6 -19 7 0 10 23 9 66 -4
113 -5 235 -3 251 5 38 62 -211 64 -277 1 -23 4 -44 7 -47 7 -8 3 128 -5 163
-3 13 -2 20 2 17 4 -4 7 -11 7 -14 1 -19 41 -142 46 -142 9 0 8 32 -2 65 -5
17 -10 73 -13 125 l-4 95 22 -105 c25 -116 46 -180 59 -180 4 0 5 4 2 10 -7
11 -14 55 -20 115 l-4 40 20 -35 c11 -19 17 -26 13 -15 -28 82 -33 106 -22
103 14 -5 39 -106 32 -130 -3 -9 0 -19 6 -23 6 -3 7 -11 4 -17 -5 -7 -2 -8 5
-4 8 5 12 3 10 -5 -3 -29 1 -60 9 -55 4 2 3 36 -2 75 -6 45 -6 75 0 81 6 6 10
-13 12 -51 2 -33 7 -70 12 -82 7 -16 9 -6 7 41 -2 34 1 62 5 62 4 0 8 -17 9
-37 0 -31 2 -34 9 -18 8 19 9 19 9 1 1 -23 14 -13 16 12 0 9 5 19 10 22 11 6
22 -38 24 -94 1 -48 11 -43 13 7 1 38 18 41 19 4 0 -12 5 -31 10 -42 9 -19 9
-18 5 3 -2 12 0 22 5 22 8 0 10 -5 9 -25 0 -3 11 -16 26 -30 15 -14 23 -29 18
-36 -4 -7 -3 -9 4 -5 5 3 20 -6 32 -21 12 -16 19 -20 16 -10 -3 9 -2 17 3 17
9 0 24 -39 21 -55 -1 -5 4 -5 10 2 18 17 -30 134 -84 207 -133 177 -324 329
-563 450 -39 19 -74 40 -78 46 -3 5 -16 10 -28 11 -14 1 -9 5 16 11 20 6 37
14 37 19 0 5 -10 4 -22 -2 -17 -9 -23 -9 -26 0 -3 9 -8 9 -20 -1 -12 -10 -14
-10 -8 0 5 8 0 12 -16 12 -18 0 -20 -2 -8 -10 20 -12 9 -20 -19 -13 -17 4 -20
8 -9 15 9 7 7 8 -9 5 -13 -3 -23 -1 -23 4 0 5 6 10 13 10 6 1 -1 5 -18 10 -32
9 -27 9 95 -6 31 -3 24 0 -20 9 -110 24 -184 36 -226 36 -66 1 -135 24 -151
51 l-14 24 5 -23 c4 -23 3 -24 -32 -17 -20 4 -44 8 -52 10 -8 1 -14 8 -12 14
1 7 4 21 5 32 5 28 55 57 92 52 20 -3 27 -1 20 6 -6 6 -35 14 -65 18 -70 10
-494 10 -580 0 -265 -30 -247 -32 -282 31 -37 64 -30 68 12 6 18 -25 34 -43
37 -41 4 5 -16 47 -28 57 -14 12 -29 51 -24 61 8 12 35 -7 35 -25 0 -6 -5 -4
-10 4 -8 13 -10 12 -10 -4 0 -13 5 -16 16 -12 9 4 28 -1 42 -10 22 -14 21 -12
-9 31 -37 51 -76 113 -67 105 3 -3 27 -33 52 -68 26 -35 51 -60 56 -57 6 3 10
2 10 -3 0 -6 6 -12 13 -15 28 -11 12 28 -26 66 -21 21 -36 41 -32 45 3 4 29
-17 57 -46 27 -28 54 -50 58 -47 4 3 15 -6 24 -20 9 -14 21 -25 26 -25 12 0 5
33 -21 100 -11 30 -27 75 -36 100 -9 25 -36 67 -62 94 -30 31 -38 44 -23 36
35 -17 62 -43 62 -57 0 -7 4 -12 9 -11 13 4 80 -70 72 -78 -3 -4 0 -4 7 0 12
7 13 4 16 -36 0 -12 7 -23 14 -26 6 -2 10 -8 7 -12 -3 -5 -1 -11 4 -14 5 -4 8
1 7 10 -1 8 -7 19 -14 23 -6 4 -7 12 -3 20 7 10 9 9 14 -3 7 -19 28 -22 25 -4
-2 7 -15 22 -29 35 -41 35 -85 143 -59 143 12 0 20 -28 14 -45 -5 -11 -2 -13
10 -9 9 3 16 1 16 -4 0 -6 14 -31 30 -55 17 -25 30 -49 30 -53 1 -5 12 -22 26
-39 20 -23 15 -9 -20 61 -25 51 -42 94 -39 98 3 3 -12 27 -34 53 -21 27 -43
55 -47 63 -4 8 4 2 19 -15 14 -16 30 -29 36 -27 12 3 42 -65 34 -77 -2 -5 2
-14 10 -21 19 -16 19 -15 -5 55 -11 32 -18 60 -16 62 8 8 45 -87 48 -121 1
-20 6 -36 10 -36 4 0 6 24 3 53 l-5 52 24 -38 c33 -53 35 -54 25 -6 -6 23 -8
48 -5 56 3 7 2 13 -3 13 -9 0 -43 117 -46 157 -1 12 -7 29 -15 38 -7 8 -10 19
-6 23 9 9 65 -58 66 -78 0 -15 51 -122 56 -117 2 1 -6 29 -17 61 -22 69 -23
80 -6 70 6 -4 4 2 -5 13 -10 11 -18 26 -18 34 0 13 24 -9 118 -113 51 -57 57
-49 7 9 -48 56 -44 66 7 18 44 -42 42 -37 -12 32 -37 48 -36 65 2 31 27 -26
53 -64 62 -93 6 -24 0 45 -9 95 l-6 35 23 -30 c13 -16 33 -54 46 -85 12 -30
20 -44 17 -30 -11 49 -15 85 -9 71 8 -16 41 -51 49 -51 3 0 -6 15 -21 34 -15
19 -29 41 -30 49 -1 8 -5 24 -9 36 -13 41 6 20 31 -34 14 -30 30 -57 36 -61 7
-4 7 0 0 12 -5 11 -19 40 -31 66 -11 26 -25 50 -31 53 -5 3 -10 12 -10 20 0
18 38 8 49 -14 10 -17 10 -20 12 -53 1 -20 2 -20 6 -4 4 14 13 4 35 -40 16
-32 34 -63 40 -69 6 -5 3 5 -6 23 -12 23 -14 37 -7 50 6 9 11 12 11 5 0 -7 5
-13 10 -13 6 0 1 18 -11 41 -11 23 -16 38 -10 34 7 -3 26 -34 43 -68 26 -50
33 -58 36 -39 4 26 19 29 25 5 3 -10 5 -3 6 15 0 18 -5 45 -13 60 -17 34 -41
172 -30 172 8 0 38 -67 45 -100 6 -34 7 -34 8 -6 1 29 2 29 17 10 15 -19 15
-19 10 1 -2 11 -8 31 -11 45 -11 39 12 11 24 -30 l11 -35 -3 37 c-2 27 0 34 8
28 7 -6 14 -7 17 -4 3 3 22 -18 43 -46 20 -27 41 -47 46 -44 6 3 17 0 27 -8 9
-7 2 5 -15 27 -28 37 -65 71 -132 123 -17 13 -25 30 -26 56 -2 26 1 34 8 27
25 -25 28 -8 4 17 -27 29 -35 52 -17 52 6 0 10 -3 10 -7 1 -5 15 -24 32 -43
29 -33 30 -33 13 -5 -10 17 -27 40 -39 53 -16 18 -18 25 -7 31 10 7 8 12 -10
24 -12 9 -20 19 -18 22 3 3 19 -6 35 -20 16 -14 32 -25 36 -25 4 0 15 -28 25
-62 9 -35 19 -55 21 -46 2 9 -4 41 -13 70 -14 47 -14 54 -1 64 13 9 13 13 -2
27 -10 11 -12 17 -4 17 6 0 19 -12 29 -27 9 -16 27 -39 39 -53 12 -14 25 -34
28 -45 3 -11 4 -4 2 15 -2 19 -7 46 -11 60 -4 14 -8 41 -9 60 -1 19 -5 41 -9
48 -11 17 -3 15 46 -9 23 -11 56 -23 72 -26 17 -3 35 -9 40 -13 11 -9 65 -8
59 1 -2 4 -13 9 -24 12 -13 3 -18 1 -13 -5 3 -7 1 -8 -5 -4 -7 4 -12 14 -12
22 0 17 23 13 72 -12 35 -18 47 -18 22 0 -21 16 -5 16 36 -1 52 -21 74 -23 36
-3 -53 27 -53 28 3 25 70 -3 84 9 35 32 -33 15 -65 18 -214 17 -96 0 -209 -3
-250 -8 -185 -18 -400 -82 -610 -180 -44 -21 -56 -23 -60 -11 -4 11 -22 5 -85
-26 -44 -21 -84 -39 -89 -39 -5 0 -18 -7 -28 -16 -14 -13 -21 -14 -32 -5 -12
10 -17 8 -26 -9 -11 -21 -12 -21 -27 -3 -8 10 -12 12 -8 6 7 -15 -4 -17 -24
-4 -10 7 -18 5 -26 -6 -10 -13 -13 -13 -26 3 -12 16 -12 17 2 12 9 -4 16 -1
16 7 0 7 -7 11 -15 8 -8 -3 -17 -2 -21 4 -3 5 -24 16 -46 25 -21 8 -41 21 -43
28 -6 18 56 3 93 -22 l30 -21 -19 21 c-10 12 -35 26 -55 33 -49 16 -64 32 -26
28 30 -3 82 -35 120 -74 11 -11 17 -16 13 -11 -17 21 -7 28 15 10 l22 -19 -19
23 c-11 12 -15 22 -9 22 16 0 44 -36 36 -45 -5 -4 -2 -5 5 -1 16 9 4 27 -42
59 -22 15 -27 16 -17 4 21 -26 4 -20 -39 14 -22 18 -37 36 -34 41 3 4 -2 11
-10 14 -9 3 -16 12 -16 19 0 13 75 -31 125 -73 18 -16 19 -16 7 0 -7 9 -38 35
-68 59 -60 46 -65 63 -8 30 50 -30 54 -21 4 10 -22 13 -41 29 -44 36 -7 17 93
-35 140 -74 23 -18 45 -33 49 -33 15 0 -101 85 -158 115 -50 27 -75 50 -64 62
4 4 137 -43 200 -71 20 -9 37 -14 37 -12 0 3 -36 22 -80 42 -86 40 -99 56 -26
31 26 -9 46 -14 46 -12 0 7 -62 31 -100 39 -40 7 -122 37 -117 42 2 2 19 -1
38 -6 19 -6 45 -12 59 -15 14 -3 36 -7 50 -10 14 -4 31 -7 37 -9 7 -1 28 -15
45 -32 18 -16 27 -22 21 -14 -19 21 -16 29 10 24 12 -3 -18 12 -67 33 -48 20
-84 39 -79 40 5 2 53 -12 108 -31 55 -19 109 -37 120 -41 15 -5 15 -3 -3 7
l-23 14 22 10 c20 9 21 11 5 17 -9 4 -15 3 -12 -2 3 -5 -1 -12 -10 -15 -24 -9
-31 -7 -31 9 0 10 6 14 16 10 11 -4 13 -3 5 4 -5 6 -35 20 -65 30 -129 46
-156 68 -37 31 105 -33 100 -21 -7 15 -116 39 -115 43 4 15 98 -24 119 -21 30
4 -34 9 -60 19 -57 21 2 3 21 0 42 -6 20 -6 45 -9 54 -7 9 2 -23 12 -71 23
-48 10 -90 22 -93 27 -3 4 1 6 8 3 12 -4 46 -9 128 -20 32 -4 32 -4 -7 8 -53
15 -62 24 -20 20 l32 -3 -30 10 c-16 5 -42 11 -57 12 -16 1 -28 6 -28 10 0 8
28 5 94 -8 21 -5 27 -3 21 6 -6 9 -4 11 6 4 20 -12 39 -14 39 -3 0 11 -46 23
-59 14 -7 -3 -8 0 -5 9 4 11 0 16 -11 16 -9 0 -13 5 -10 10 4 6 15 8 26 5 13
-5 19 -2 17 7 -2 10 10 12 47 11 35 -1 43 0 25 5 -32 10 -8 20 35 15 81 -8 95
-7 95 8 0 8 -4 8 -14 0 -12 -10 -13 -8 -9 10 4 15 2 20 -5 15 -6 -3 -13 -2
-16 3 -5 8 30 25 47 22 5 -1 6 3 2 9 -5 8 -11 7 -21 -1 -11 -9 -14 -8 -14 2 0
9 -3 10 -8 4 -11 -15 -114 -18 -124 -3 -6 10 -8 10 -8 1 0 -7 -10 -13 -22 -12
-22 0 -22 1 2 11 31 14 44 16 50 7 3 -4 17 1 30 13 14 11 19 17 13 13 -8 -4
-13 0 -13 9 0 10 7 13 20 11 24 -5 17 12 -12 33 -15 11 -16 17 -7 28 9 11 15
12 26 2 8 -6 13 -7 12 -2 -4 22 2 33 16 27 10 -3 15 -1 13 7 -2 8 11 18 30 23
17 5 32 14 32 18 0 5 17 10 38 10 37 1 37 1 7 9 -16 4 -23 8 -14 9 9 0 19 8
23 16 5 14 2 14 -23 1 -16 -9 -44 -16 -62 -17 -40 -2 -192 11 -198 17 -2 2 26
4 64 4 38 0 66 3 63 6 -4 3 -32 6 -65 6 -32 1 -47 3 -33 6 14 2 30 8 37 13 6
6 28 9 49 7 26 -2 38 1 41 12 3 9 1 11 -4 5 -4 -6 -14 -10 -20 -9 -7 1 -20 2
-29 3 -8 0 -12 6 -9 11 4 6 -7 10 -25 10 -18 0 -29 -4 -25 -10 4 -6 -5 -10
-22 -9 -17 1 -21 3 -10 6 9 2 17 10 17 17 0 8 16 11 50 10 29 -2 48 1 45 7 -6
8 3 11 50 12 16 0 17 1 2 4 -9 3 -15 9 -12 14 4 5 0 9 -7 10 -7 1 -2 5 12 10
l25 8 -25 -2 c-18 -1 -24 -7 -22 -21 3 -15 -1 -18 -17 -13 -14 3 -21 0 -21 -9
0 -9 -10 -14 -27 -13 -26 2 -27 2 -4 6 19 4 21 7 10 14 -11 7 -10 9 4 9 12 0
16 5 11 13 -6 10 -4 10 7 0 19 -19 26 -16 25 10 -1 17 5 22 26 22 15 1 31 5
35 10 4 4 3 5 -4 1 -6 -3 -14 -2 -18 4 -3 5 1 10 9 10 8 0 21 9 29 20 8 11 16
18 19 15 3 -3 31 -7 64 -9 55 -4 55 1 1 18 -28 9 -11 25 39 37 57 15 62 24 13
24 -21 0 -39 -4 -39 -8z m-364 -120 c-13 -73 -31 -111 -63 -130 -19 -10 -38
-28 -44 -38 -5 -11 -15 -19 -21 -19 -7 0 -6 5 2 15 11 13 10 14 -4 9 -9 -3
-16 -12 -16 -20 0 -8 -5 -14 -11 -14 -7 0 -5 9 5 24 8 14 12 26 8 29 -4 2 -1
2 6 1 16 -4 63 17 57 26 -2 3 5 6 17 6 22 -1 26 8 48 92 11 44 23 59 16 19z
m-666 -83 c0 -8 -5 -12 -10 -9 -6 4 -8 11 -5 16 9 14 15 11 15 -7z m697 -21
c-3 -10 -5 -4 -5 12 0 17 2 24 5 18 2 -7 2 -21 0 -30z m-957 -7 c0 -2 -8 -10
-17 -17 -16 -13 -17 -12 -4 4 13 16 21 21 21 13z m478 -67 c-3 -19 0 -26 11
-25 10 1 17 -12 21 -36 4 -20 3 -35 -1 -32 -5 3 -14 -4 -21 -16 -18 -29 -23
-25 -24 23 -1 23 1 35 5 27 7 -17 31 -25 31 -10 0 6 -6 10 -12 11 -10 0 -10 2
0 6 25 10 11 21 -16 13 -21 -6 -29 -4 -29 6 0 7 4 11 8 9 9 -6 16 25 11 49 -3
14 -6 16 -12 6 -5 -8 -8 -3 -7 14 l2 27 18 -23 c11 -13 17 -33 15 -49z m63 50
c15 -7 18 -16 13 -32 -6 -22 -6 -22 11 -2 16 20 16 20 5 -3 -6 -12 -15 -20
-21 -17 -5 4 -12 -1 -15 -10 -6 -13 -8 -14 -15 -3 -5 7 -9 18 -9 23 0 6 5 3
10 -5 6 -9 10 -10 10 -3 0 6 -4 15 -10 18 -10 6 -14 45 -4 45 3 0 14 -5 25
-11z m-549 -41 c-15 -15 -16 -32 -1 -22 8 4 8 0 0 -15 -7 -12 -21 -27 -31 -34
-11 -6 -20 -18 -20 -25 0 -7 -7 -15 -15 -18 -8 -4 -15 -14 -15 -23 0 -14 -2
-14 -11 -1 -9 12 -10 11 -6 -7 5 -22 -6 -32 -17 -15 -7 11 43 94 53 87 5 -2
17 2 27 10 18 15 18 15 0 8 -13 -4 -17 -2 -14 8 3 8 12 13 21 13 9 -1 14 2 11
8 -6 9 13 38 24 38 3 0 1 -5 -6 -12z m338 -91 c0 -43 -5 -80 -12 -89 -23 -30
-178 -62 -178 -37 0 8 -11 2 -25 -14 -14 -15 -29 -27 -32 -27 -4 0 6 13 21 29
16 16 35 27 42 24 8 -3 14 0 14 5 0 24 -21 21 -54 -9 -20 -17 -36 -27 -36 -22
0 5 10 17 23 27 12 10 37 33 56 50 33 29 34 30 18 5 -15 -25 -14 -39 5 -39 4
0 7 3 6 8 -3 14 23 65 48 96 24 29 78 66 96 66 5 0 8 -33 8 -73z m734 67 c25
-4 46 -11 46 -16 0 -6 -8 -7 -17 -4 -9 4 -42 9 -72 13 -31 3 -58 7 -60 9 -7 6
51 5 103 -2z m-1174 -21 c0 -5 -7 -17 -15 -27 -15 -20 -20 -10 -9 18 6 16 24
22 24 9z m1178 -9 c13 -2 20 -8 18 -13 -6 -9 -96 9 -96 19 0 7 26 5 78 -6z
m-478 -4 c0 -5 -4 -10 -10 -10 -5 0 -10 5 -10 10 0 6 5 10 10 10 6 0 10 -4 10
-10z m-783 -15 c0 -8 -4 -12 -9 -9 -5 3 -6 10 -3 15 9 13 12 11 12 -6z m948
-2 c-4 -10 -8 -24 -8 -30 0 -7 -4 -13 -9 -13 -4 0 -8 6 -8 13 0 8 -3 8 -8 1
-4 -6 -17 -7 -32 -3 -24 7 -11 14 19 10 8 -2 10 2 5 10 -4 8 -3 10 4 5 7 -4
17 -4 23 0 8 4 7 9 -2 15 -11 7 -10 9 5 9 13 0 16 -4 11 -17z m-308 -15 c-3
-8 -6 -5 -6 6 -1 11 2 17 5 13 3 -3 4 -12 1 -19z m603 1 c0 -4 -7 -6 -15 -3
-8 4 -15 10 -15 15 0 4 7 6 15 3 8 -4 15 -10 15 -15z m-1242 -39 c-1 -35 -8
-33 -12 4 -2 14 0 26 5 26 4 0 7 -14 7 -30z m760 12 c-11 -2 -15 -9 -11 -20 4
-13 2 -12 -10 3 -14 18 -14 21 1 26 9 4 22 4 27 0 6 -3 2 -7 -7 -9z m295 11
c-7 -2 -21 -2 -30 0 -10 3 -4 5 12 5 17 0 24 -2 18 -5z m-416 -25 c-3 -8 -6
-5 -6 6 -1 11 2 17 5 13 3 -3 4 -12 1 -19z m523 -4 c0 -8 -4 -12 -10 -9 -5 3
-10 10 -10 16 0 5 5 9 10 9 6 0 10 -7 10 -16z m-280 -14 c0 -5 -8 -10 -17 -10
-15 0 -16 2 -3 10 19 12 20 12 20 0z m183 -34 c-4 -6 -8 -5 -11 2 -2 7 -7 10
-11 8 -4 -3 -8 1 -8 8 0 11 4 12 18 3 10 -6 15 -16 12 -21z m-163 12 c0 -4
-12 -10 -27 -13 -16 -3 -42 -9 -58 -14 -43 -11 -67 13 -27 27 31 10 112 10
112 0z m225 -7 c-3 -6 -11 -11 -17 -11 -6 0 -6 6 2 15 14 17 26 13 15 -4z
m-1052 2 c4 -3 1 -13 -5 -21 -7 -8 -13 -19 -14 -26 -2 -6 -6 -22 -9 -36 -4
-14 -7 -31 -7 -38 -1 -8 -10 -4 -25 10 -25 24 -30 39 -10 36 6 -2 11 3 9 11
-3 12 -1 12 14 0 16 -12 17 -12 11 3 -3 9 1 22 9 29 11 9 12 15 3 25 -9 11 -8
14 3 14 8 0 18 -3 21 -7z m-63 -18 c-7 -8 -17 -15 -22 -15 -11 0 14 29 26 30
5 0 3 -7 -4 -15z m732 3 c-6 -6 -22 -13 -34 -15 -18 -2 -19 -1 -8 6 8 5 17 8
21 5 4 -2 10 0 14 6 3 5 9 10 13 10 3 0 1 -5 -6 -12z m158 -21 c0 -5 -7 -7
-15 -3 -8 3 -15 1 -15 -4 0 -14 -61 -39 -105 -42 -34 -3 -40 -6 -38 -25 2 -16
-5 -24 -27 -32 -18 -6 -30 -6 -30 0 0 5 9 9 19 9 11 0 23 4 26 10 4 6 -1 7
-12 3 -17 -6 -17 -5 0 14 9 11 14 23 10 28 -5 4 -2 5 5 1 7 -4 12 -2 12 7 0 9
23 19 68 29 75 17 102 18 102 5z m-431 -24 c-21 -28 -23 -29 -16 -10 4 11 3
16 -3 12 -6 -3 -10 -13 -10 -21 0 -9 -12 -15 -37 -16 -38 -1 -38 -1 -5 -5 53
-7 26 -23 -36 -22 -31 1 -49 3 -39 6 11 3 16 11 13 18 -3 10 13 20 52 33 31
11 65 20 76 21 16 1 17 -1 5 -16z m697 2 c-17 -17 -36 -20 -36 -4 0 5 4 8 9 4
5 -3 12 -1 16 5 3 5 11 10 16 10 6 0 4 -7 -5 -15z m-843 -25 c-10 -11 -21 -20
-25 -20 -5 0 -3 9 4 20 7 11 18 20 25 20 9 0 7 -6 -4 -20z m305 -14 c-7 -8
-16 -12 -20 -9 -5 2 -8 -1 -8 -8 0 -7 -3 -9 -7 -5 -5 4 1 14 11 22 25 18 41
18 24 0z m138 -8 c4 -6 3 -8 -4 -4 -5 3 -13 0 -15 -6 -3 -8 -6 -6 -6 5 -1 19
14 23 25 5z m41 6 c-3 -3 -12 -4 -19 -1 -8 3 -5 6 6 6 11 1 17 -2 13 -5z m-15
-41 c-6 -10 -23 -20 -38 -21 -15 -1 -31 -7 -35 -13 -4 -7 -12 -8 -18 -5 -6 4
-19 2 -28 -4 -15 -9 -14 -10 7 -4 16 4 22 3 15 -4 -5 -5 -23 -12 -40 -15 -16
-4 -24 -4 -17 -1 6 3 12 11 12 18 0 10 139 76 148 70 2 -1 -1 -11 -6 -21z
m548 17 c0 -5 -2 -10 -4 -10 -3 0 -8 5 -11 10 -3 6 -1 10 4 10 6 0 11 -4 11
-10z m-1080 -10 c0 -5 -2 -10 -4 -10 -3 0 -8 5 -11 10 -3 6 -1 10 4 10 6 0 11
-4 11 -10z m-493 -20 c14 -11 22 -20 17 -20 -12 1 -61 39 -51 40 5 0 20 -9 34
-20z m637 -5 c-7 -17 -20 -20 -29 -5 -3 6 -11 10 -17 10 -6 0 -5 -7 3 -17 13
-16 12 -17 -3 -4 -16 12 -18 11 -18 -3 0 -9 7 -16 15 -16 11 0 15 -11 15 -40
0 -22 -4 -40 -8 -40 -5 0 -9 6 -9 13 0 6 -4 20 -8 30 -5 11 -3 17 5 17 7 0 1
10 -14 21 l-27 21 23 13 c34 19 79 19 72 0z m191 -4 c3 -5 1 -12 -5 -16 -5 -3
-10 -1 -10 5 0 6 -5 8 -12 4 -7 -4 -8 -3 -4 4 9 14 23 15 31 3z m168 -41 c-3
-11 -9 -20 -14 -20 -10 0 -12 24 -2 33 13 13 21 7 16 -13z m-493 -4 c0 -2 -7
-7 -16 -10 -8 -3 -12 -2 -9 4 6 10 25 14 25 6z m38 -42 c-22 -22 -76 -11 -58
11 7 8 21 15 32 15 12 0 17 4 12 13 -4 6 2 4 12 -5 17 -17 17 -19 2 -34z m373
3 c-8 -8 -11 -7 -11 4 0 20 13 34 18 19 3 -7 -1 -17 -7 -23z m-21 3 c0 -5 -9
-14 -20 -20 -16 -8 -20 -8 -20 4 0 13 13 23 33 25 4 1 7 -3 7 -9z m-645 -68
c-3 -3 -16 5 -28 17 l-22 23 28 -17 c15 -10 25 -20 22 -23z m285 -12 c-6 -11
-13 -20 -16 -20 -2 0 0 9 6 20 6 11 13 20 16 20 2 0 0 -9 -6 -20z m715 -68
c-3 -3 -11 0 -18 7 -9 10 -8 11 6 5 10 -3 15 -9 12 -12z m89 3 c20 -9 42 -13
48 -9 7 4 8 3 4 -4 -4 -7 -1 -12 9 -12 9 0 14 4 11 9 -4 5 4 7 16 3 21 -5 21
-6 2 -13 -18 -7 -18 -8 0 -8 11 -1 17 -4 13 -7 -6 -6 -157 45 -157 52 0 8 18
4 54 -11z m-974 -92 c0 -7 -6 -10 -14 -7 -8 3 -13 15 -11 26 3 11 1 17 -3 14
-4 -4 -7 -13 -7 -18 0 -6 -6 -13 -12 -15 -19 -7 -16 17 4 39 16 18 17 18 30
-4 7 -13 12 -28 13 -35z m2006 -38 c18 -13 18 -14 -4 -8 -12 3 -25 9 -28 14
-8 14 10 11 32 -6z m414 5 c8 -5 11 -10 5 -10 -5 0 -17 5 -25 10 -8 5 -10 10
-5 10 6 0 17 -5 25 -10z m-460 -25 c7 -9 8 -15 2 -15 -5 0 -12 7 -16 15 -3 8
-4 15 -2 15 2 0 9 -7 16 -15z m-15 -45 c14 -22 -13 -8 -41 22 l-29 31 32 -22
c18 -12 35 -26 38 -31z m78 28 c9 -7 20 -29 23 -48 8 -41 6 -39 -30 18 -26 42
-24 53 7 30z m-2003 -38 c-11 -7 -17 -4 -21 8 -10 26 1 36 20 18 14 -15 14
-18 1 -26z m1835 30 c3 -5 2 -10 -4 -10 -5 0 -13 5 -16 10 -3 6 -2 10 4 10 5
0 13 -4 16 -10z m-15 -49 c19 -16 33 -31 30 -34 -3 -3 -22 10 -42 29 -46 41
-36 45 12 5z m-160 4 c20 -24 6 -28 -15 -5 -10 11 -13 20 -8 20 6 0 16 -7 23
-15z m-1650 -3 c0 -5 -11 -14 -25 -20 -32 -15 -35 -15 -35 -1 0 5 5 7 10 4 6
-3 10 -2 10 4 0 5 8 12 18 14 9 3 18 5 20 6 1 0 2 -3 2 -7z m735 -32 c3 -5 1
-10 -4 -10 -6 0 -11 5 -11 10 0 6 2 10 4 10 3 0 8 -4 11 -10z m889 -23 c4 -19
3 -20 -7 -6 -7 9 -18 14 -24 12 -7 -3 -13 -1 -13 4 0 20 38 11 44 -10z m112
-14 c-7 -7 -26 7 -26 19 0 6 6 6 15 -2 9 -7 13 -15 11 -17z m-996 7 c8 -5 12
-11 9 -14 -3 -3 -14 1 -25 9 -21 16 -8 20 16 5z m1064 -21 c10 -21 13 -37 7
-48 -7 -12 -3 -20 17 -33 36 -24 20 -23 -28 2 -32 16 -39 25 -38 49 1 29 1 29
21 10 26 -24 34 -17 13 13 -16 22 -20 38 -12 38 3 0 12 -14 20 -31z m-124 -10
c0 -5 -4 -9 -10 -9 -5 0 -10 7 -10 16 0 8 5 12 10 9 6 -3 10 -10 10 -16z
m-1641 -11 c5 -13 11 -39 15 -58 l6 -35 -15 35 c-15 33 -15 34 -10 5 3 -16 9
-39 12 -50 12 -44 -8 -5 -26 48 -13 42 -15 54 -5 46 19 -16 18 -4 -2 15 -14
15 -14 16 1 16 8 0 19 -10 24 -22z m1689 10 c14 -14 16 -42 2 -33 -14 9 -32
45 -22 45 4 0 13 -5 20 -12z m120 -8 c7 -11 8 -20 2 -20 -5 0 -14 9 -20 20 -6
11 -7 20 -3 20 5 0 14 -9 21 -20z m-1858 -9 c0 -6 -4 -13 -10 -16 -5 -3 -10 1
-10 9 0 9 5 16 10 16 6 0 10 -4 10 -9z m770 -17 c0 -9 -7 -14 -17 -12 -25 5
-28 28 -4 28 12 0 21 -6 21 -16z m95 -31 c35 -38 48 -66 21 -44 -10 8 -16 9
-21 1 -7 -12 -85 49 -85 68 0 27 51 12 85 -25z m-220 7 c3 -5 2 -10 -4 -10 -5
0 -13 5 -16 10 -3 6 -2 10 4 10 5 0 13 -4 16 -10z m103 -6 c19 -3 24 -10 20
-28 -2 -13 -8 -12 -30 8 -28 24 -38 44 -15 29 6 -4 18 -8 25 -9z m82 -49 c7
-9 21 -13 31 -10 9 3 20 1 24 -4 4 -7 0 -8 -10 -5 -12 5 -16 2 -13 -11 2 -10
-3 -19 -10 -21 -7 -1 -8 0 -1 3 6 3 -7 13 -29 23 -29 13 -40 24 -39 39 1 15 5
17 17 11 9 -5 23 -16 30 -25z m-72 -16 c2 -10 1 -10 -5 -2 -4 6 -21 15 -37 19
-20 5 -24 9 -15 15 16 9 51 -10 57 -32z m1002 0 c0 -6 -4 -7 -10 -4 -5 3 -10
11 -10 16 0 6 5 7 10 4 6 -3 10 -11 10 -16z m-1739 -36 c6 -16 12 -32 13 -38
1 -5 7 -19 13 -30 6 -11 12 -24 13 -30 3 -14 7 -26 19 -62 17 -55 -4 -37 -23
20 -10 28 -25 62 -33 75 -8 14 -9 22 -3 22 7 0 5 9 -4 22 -16 22 -21 48 -11
48 3 0 10 -12 16 -27z m544 -3 c13 -5 14 -9 5 -9 -8 0 -24 4 -35 9 -13 5 -14
9 -5 9 8 0 24 -4 35 -9z m52 4 c-3 -3 -12 -4 -19 -1 -8 3 -5 6 6 6 11 1 17 -2
13 -5z m136 -67 l28 -25 -31 -10 c-16 -6 -30 -8 -30 -5 0 3 -7 0 -15 -7 -12
-10 -18 -10 -31 1 -14 12 -14 14 3 20 17 7 17 8 0 8 -10 1 -15 6 -12 12 5 7
15 4 32 -6 18 -12 28 -14 36 -6 7 7 2 14 -19 22 -16 7 -34 11 -40 10 -7 -1 -9
9 -6 24 l4 25 27 -20 c14 -10 39 -30 54 -43z m-5 38 c-3 -3 -9 2 -12 12 -6 14
-5 15 5 6 7 -7 10 -15 7 -18z m66 16 c3 -4 3 -10 0 -13 -7 -8 -54 3 -54 13 0
12 47 12 54 0z m586 -32 c0 -6 -4 -7 -10 -4 -5 3 -10 11 -10 16 0 6 5 7 10 4
6 -3 10 -11 10 -16z m210 0 c0 -6 -4 -7 -10 -4 -5 3 -10 11 -10 16 0 6 5 7 10
4 6 -3 10 -11 10 -16z m-165 -35 c9 -15 12 -23 6 -20 -11 7 -35 46 -28 46 3 0
12 -12 22 -26z m275 -1 c8 -16 16 -32 19 -38 2 -5 -5 -2 -16 8 -21 19 -37 57
-24 57 4 0 14 -12 21 -27z m-1691 -39 c7 -26 10 -49 7 -52 -7 -6 -13 10 -25
65 -12 57 3 46 18 -13z m1397 14 l16 -33 -26 27 c-28 29 -32 38 -16 38 5 0 17
-15 26 -32z m-46 -3 c0 -8 -2 -15 -4 -15 -2 0 -6 7 -10 15 -3 8 -1 15 4 15 6
0 10 -7 10 -15z m130 -1 c0 -8 -4 -12 -10 -9 -5 3 -10 10 -10 16 0 5 5 9 10 9
6 0 10 -7 10 -16z m323 -44 c3 -11 2 -20 -3 -20 -4 0 -10 9 -13 20 -3 11 -2
20 3 20 4 0 10 -9 13 -20z m-510 -40 c3 -11 2 -18 -3 -15 -4 3 -10 14 -13 25
-3 11 -2 18 3 15 4 -3 10 -14 13 -25z m-727 6 c30 -23 12 -27 -21 -6 -18 12
-24 20 -14 20 8 0 24 -6 35 -14z m-2386 -16 c0 -5 -4 -10 -10 -10 -5 0 -10 5
-10 10 0 6 5 10 10 10 6 0 10 -4 10 -10z m-80 -10 c0 -5 -4 -10 -10 -10 -5 0
-10 5 -10 10 0 6 5 10 10 10 6 0 10 -4 10 -10z m170 -5 c-7 -8 -17 -15 -23
-15 -6 0 -2 7 9 15 25 19 30 19 14 0z m2920 -15 c11 -11 20 -26 20 -32 -1 -9
-4 -8 -13 2 -7 8 -20 23 -30 33 -10 9 -14 17 -8 17 6 0 20 -9 31 -20z m-2906
-5 c-4 -8 -11 -15 -16 -15 -6 0 -5 6 2 15 7 8 14 15 16 15 2 0 1 -7 -2 -15z
m1666 -34 c-1 -10 -6 -7 -15 9 -19 33 -18 50 0 26 8 -11 15 -27 15 -35z
m-1793 7 c-5 -28 -27 -36 -27 -10 0 20 8 32 22 32 4 0 6 -10 5 -22z m2863 -14
c0 -2 -7 -4 -15 -4 -8 0 -15 4 -15 10 0 5 7 7 15 4 8 -4 15 -8 15 -10z m54 0
c5 -14 4 -15 -9 -4 -17 14 -19 20 -6 20 5 0 12 -7 15 -16z m-2339 -22 c-3 -3
-11 0 -18 7 -9 10 -8 11 6 5 10 -3 15 -9 12 -12z m1305 8 c0 -5 -2 -10 -4 -10
-3 0 -8 5 -11 10 -3 6 -1 10 4 10 6 0 11 -4 11 -10z m-1311 -47 c-18 -21 -35
-40 -36 -42 -2 -2 -3 1 -3 8 0 13 56 71 68 71 3 0 -10 -17 -29 -37z m2415 -3
l7 -25 -15 25 c-17 28 -21 50 -7 35 5 -6 12 -21 15 -35z m-2524 26 c0 -2 -8
-10 -17 -17 -16 -13 -17 -12 -4 4 13 16 21 21 21 13z m175 -41 c-25 -22 -34
-42 -15 -30 6 4 7 -1 3 -11 -6 -15 -7 -15 -15 1 -7 12 -4 23 11 39 12 12 18
26 14 30 -4 4 0 4 9 1 15 -6 14 -10 -7 -30z m2375 20 c0 -8 -2 -15 -4 -15 -2
0 -6 7 -10 15 -3 8 -1 15 4 15 6 0 10 -7 10 -15z m-1764 -20 c-11 -8 -25 -15
-30 -15 -6 1 0 7 14 15 32 19 40 18 16 0z m1686 -63 c-18 -5 -40 15 -59 52
-16 31 -15 30 28 -9 26 -24 39 -41 31 -43z m-2207 48 c3 -6 -1 -7 -9 -4 -18 7
-21 14 -7 14 6 0 13 -4 16 -10z m30 -10 c3 -5 1 -10 -4 -10 -6 0 -11 5 -11 10
0 6 2 10 4 10 3 0 8 -4 11 -10z m-42 -45 c-3 -9 -8 -14 -10 -11 -3 3 -2 9 2
15 9 16 15 13 8 -4z m2293 -149 c30 -61 31 -67 10 -42 -13 16 -33 46 -43 67
-10 20 -21 36 -24 33 -10 -6 -50 36 -44 46 3 5 -2 22 -11 37 -10 18 0 10 30
-21 26 -26 63 -80 82 -120z m-2661 109 c-9 -20 -18 -35 -21 -32 -3 2 3 21 12
41 23 47 29 40 9 -9z m387 23 c-7 -7 -12 -8 -12 -2 0 14 12 26 19 19 2 -3 -1
-11 -7 -17z m518 8 c0 -2 -9 -6 -20 -9 -11 -3 -18 -1 -14 4 5 9 34 13 34 5z
m1714 -12 c10 -25 1 -27 -19 -4 -15 17 -16 20 -3 20 9 0 19 -7 22 -16z m-179
-4 c3 -5 1 -10 -4 -10 -6 0 -11 5 -11 10 0 6 2 10 4 10 3 0 8 -4 11 -10z
m-2295 -25 c0 -8 -4 -15 -10 -15 -5 0 -7 7 -4 15 4 8 8 15 10 15 2 0 4 -7 4
-15z m125 -102 c-10 -32 -27 -78 -38 -103 -19 -42 -21 -44 -27 -20 -5 18 4 47
34 107 23 45 43 80 45 78 2 -2 -5 -30 -14 -62z m-114 34 c-10 -9 -11 -8 -5 6
3 10 9 15 12 12 3 -3 0 -11 -7 -18z m2475 -39 c21 -41 11 -34 -21 15 -16 24
-21 36 -11 28 10 -8 24 -27 32 -43z m-2263 27 c-3 -9 -8 -14 -10 -11 -3 3 -2
9 2 15 9 16 15 13 8 -4z m-318 -5 c-3 -5 -11 -10 -16 -10 -6 0 -7 5 -4 10 3 6
11 10 16 10 6 0 7 -4 4 -10z m105 -4 c0 -3 -4 -8 -10 -11 -5 -3 -10 -1 -10 4
0 6 5 11 10 11 6 0 10 -2 10 -4z m2248 -36 c17 -27 10 -25 -19 6 -13 14 -17
23 -9 19 9 -3 21 -14 28 -25z m173 3 c13 -15 17 -22 8 -15 -9 6 -18 9 -21 7
-3 -3 -8 3 -11 15 -7 26 -5 25 24 -7z m-2598 5 c-4 -7 -8 -19 -9 -26 -4 -23
-14 -27 -14 -6 0 11 5 25 12 32 16 16 21 15 11 0z m2399 -32 c10 -19 8 -18
-16 3 -14 14 -26 29 -26 34 0 13 29 -12 42 -37z m-2251 -2 c-5 -16 -10 -21
-10 -12 -1 18 10 51 15 45 2 -1 -1 -16 -5 -33z m689 16 c6 -11 8 -20 6 -20 -3
0 -10 9 -16 20 -6 11 -8 20 -6 20 3 0 10 -9 16 -20z m-366 -52 c-3 -29 -12
-75 -21 -102 -18 -55 -25 -192 -13 -233 6 -22 8 -13 9 40 1 43 5 66 11 62 6
-3 11 -16 11 -28 1 -17 2 -18 6 -4 2 9 -1 33 -7 52 -10 29 -7 51 16 144 15 61
30 109 33 106 10 -6 4 -120 -9 -195 -15 -82 -18 -131 -10 -209 6 -60 5 -62
-20 -68 -14 -4 -43 -7 -65 -7 l-39 -1 -1 52 c-1 29 2 50 7 47 9 -6 9 10 -1 46
-8 27 18 166 45 240 20 54 45 110 50 110 1 0 1 -24 -2 -52z m1876 32 c0 -5 -2
-10 -4 -10 -3 0 -8 5 -11 10 -3 6 -1 10 4 10 6 0 11 -4 11 -10z m-1777 -40
c-3 -11 -10 -23 -16 -27 -7 -4 -8 0 -4 11 4 10 7 24 7 32 0 9 4 13 9 10 5 -3
7 -15 4 -26z m287 21 c0 -5 -6 -14 -14 -20 -12 -10 -14 -9 -11 6 2 10 4 19 4
21 2 6 21 1 21 -7z m-511 -78 c-26 -101 -30 -110 -23 -44 5 50 27 121 37 121
3 0 -4 -35 -14 -77z m527 40 c-5 -30 -4 -34 4 -20 6 9 16 15 21 12 5 -4 7 -10
5 -14 -8 -13 -15 -64 -8 -56 7 6 8 10 11 36 0 5 6 7 11 4 6 -3 10 -26 10 -51
0 -48 16 -59 26 -19 3 14 10 25 16 25 5 0 6 -5 3 -10 -3 -6 1 -17 9 -26 9 -8
16 -22 16 -30 0 -14 48 -94 57 -94 2 0 -6 18 -17 41 -12 23 -19 43 -16 46 3 3
10 -6 16 -21 5 -15 14 -24 20 -21 5 3 11 -4 11 -17 l2 -23 4 23 c3 17 10 23
22 19 10 -2 26 0 35 5 12 7 16 5 16 -7 0 -8 5 -15 10 -15 6 0 5 11 -3 28 -8
15 -13 36 -11 47 3 11 5 28 6 38 1 9 6 17 10 17 7 0 34 -43 29 -48 -2 -1 3
-34 9 -73 7 -39 13 -69 15 -67 2 2 5 24 8 50 4 35 2 46 -6 41 -7 -4 -7 0 1 9
10 13 10 17 0 21 -7 2 -10 8 -5 12 4 5 36 -21 72 -56 53 -54 63 -69 58 -89 -5
-19 -3 -22 10 -17 26 10 26 -4 2 -58 -13 -27 -19 -51 -14 -53 5 -2 9 -8 9 -13
0 -13 -42 -11 -81 4 -19 8 -41 13 -49 12 -8 -1 -22 5 -31 12 -9 8 -20 13 -25
12 -5 -2 -27 0 -49 4 -93 17 -136 20 -234 21 l-104 1 -4 26 c-2 15 3 32 12 39
12 10 15 10 15 -4 0 -10 4 -15 9 -11 6 3 6 17 1 34 -5 19 -2 45 10 83 11 29
20 84 21 121 2 59 18 107 36 107 3 0 2 -17 -1 -37z m384 16 c0 -6 -4 -7 -10
-4 -5 3 -10 11 -10 16 0 6 5 7 10 4 6 -3 10 -11 10 -16z m1166 -11 c34 -30 36
-30 21 -7 -15 23 -15 26 -2 26 20 0 59 -53 50 -67 -5 -8 -11 -8 -19 -1 -7 6
-15 9 -18 6 -3 -3 -25 13 -49 34 -24 22 -39 40 -32 41 7 0 29 -15 49 -32z
m-1187 -11 c2 21 32 7 62 -28 63 -73 82 -107 75 -135 -7 -25 -8 -26 -20 -8 -8
10 -23 37 -35 59 -11 22 -21 33 -21 25 0 -8 9 -30 21 -49 11 -18 19 -35 17
-36 -2 -2 -29 20 -60 48 -50 46 -57 57 -58 92 -3 58 1 73 10 45 4 -14 8 -20 9
-13z m-641 -22 c-1 -19 -6 -35 -10 -35 -4 0 -5 -7 -2 -15 4 -8 2 -15 -3 -15
-17 0 -23 13 -13 26 6 6 10 16 9 20 -4 24 2 54 11 54 6 0 10 -16 8 -35z m227
-3 c-8 -8 -25 10 -19 20 4 6 9 5 15 -3 4 -7 6 -15 4 -17z m342 6 c-3 -8 -6 -5
-6 6 -1 11 2 17 5 13 3 -3 4 -12 1 -19z m-857 -15 c-9 -27 -14 -52 -27 -133
-6 -42 -22 -74 -23 -50 -1 8 -3 26 -6 39 -7 38 13 128 33 150 25 28 33 25 23
-6z m748 -14 c2 -32 1 -33 -13 -15 -18 24 -20 59 -2 54 6 -3 13 -20 15 -39z
m-938 15 c0 -8 -5 -12 -10 -9 -6 4 -8 11 -5 16 9 14 15 11 15 -7z m97 -16 c-3
-8 -6 -5 -6 6 -1 11 2 17 5 13 3 -3 4 -12 1 -19z m459 -80 c3 -46 8 -117 13
-157 7 -68 6 -73 -13 -80 -29 -11 -52 -3 -63 22 -11 24 -9 50 13 152 8 39 17
81 20 95 8 40 15 62 20 57 3 -2 7 -42 10 -89z m40 54 c-2 -9 2 -20 8 -24 7 -5
4 -8 -6 -8 -13 0 -18 8 -18 31 0 16 4 28 9 25 5 -4 8 -14 7 -24z m110 3 c1 -8
-2 -15 -7 -15 -5 0 -9 10 -9 22 0 23 12 17 16 -7z m289 -35 c-3 -38 -1 -60 6
-60 5 0 7 -5 3 -11 -12 -20 -24 13 -24 67 0 44 5 64 17 64 1 0 1 -27 -2 -60z
m-327 0 c-1 -22 -5 -40 -9 -40 -4 0 -6 17 -4 38 3 42 3 42 10 42 3 0 4 -18 3
-40z m-213 0 c3 -5 1 -10 -4 -10 -6 0 -11 5 -11 10 0 6 2 10 4 10 3 0 8 -4 11
-10z m242 -27 c-3 -10 -5 -4 -5 12 0 17 2 24 5 18 2 -7 2 -21 0 -30z m1167 -5
c-4 -6 -10 -5 -15 3 -14 22 -10 33 6 19 8 -7 12 -17 9 -22z m-1259 -31 c1 -33
-4 -48 -14 -52 -9 -3 -13 -3 -9 0 3 4 2 20 -2 36 -7 22 -5 31 8 39 10 5 12 10
5 10 -7 0 -13 5 -13 11 0 6 6 9 13 7 7 -3 12 -23 12 -51z m-146 -145 c1 -19
-3 -22 -26 -16 -16 4 -31 12 -35 18 -10 14 -2 94 12 131 12 30 12 29 30 -40
11 -38 19 -80 19 -93z m211 144 c-7 -7 -14 -6 -21 1 -9 9 -7 12 9 10 14 -1 18
-5 12 -11z m-483 -74 c2 -50 0 -55 -12 -39 -12 17 -12 50 0 85 8 22 10 13 12
-46z m1658 46 c-11 -6 -23 -16 -27 -22 -5 -8 -8 -7 -8 1 0 12 28 32 45 32 6 0
1 -5 -10 -11z m1692 6 c-3 -3 -12 -4 -19 -1 -8 3 -5 6 6 6 11 1 17 -2 13 -5z
m-1741 -51 c-10 -10 -19 5 -10 18 6 11 8 11 12 0 2 -7 1 -15 -2 -18z m60 7
c-10 -3 -18 -10 -19 -15 -3 -13 -77 -92 -77 -82 0 17 93 116 103 110 6 -4 3
-9 -7 -13z m-86 -30 c0 -5 -7 -7 -15 -4 -8 4 -15 8 -15 10 0 2 7 4 15 4 8 0
15 -4 15 -10z m210 -41 c0 -18 -10 -8 -25 24 l-16 32 21 -24 c11 -13 20 -27
20 -32z m129 17 c-3 -3 -11 5 -18 17 -13 21 -12 21 5 5 10 -10 16 -20 13 -22z
m-762 2 c-3 -8 -6 -5 -6 6 -1 11 2 17 5 13 3 -3 4 -12 1 -19z m896 7 c4 -8 2
-17 -3 -20 -6 -4 -10 3 -10 14 0 25 6 27 13 6z m-305 -7 c18 -18 15 -35 -8
-41 -13 -3 -18 -1 -14 6 3 7 -3 1 -14 -12 -10 -13 -30 -25 -43 -26 -42 -4 -44
-5 -30 -14 9 -6 10 -11 2 -15 -6 -4 -14 0 -17 8 -7 19 63 86 83 79 7 -3 13 2
13 11 0 19 11 21 28 4z m329 -20 c-3 -8 -6 -5 -6 6 -1 11 2 17 5 13 3 -3 4
-12 1 -19z m-991 -37 c-12 -19 -24 -12 -19 10 4 13 9 17 15 11 6 -6 7 -15 4
-21z m828 3 c3 -8 2 -12 -4 -9 -6 3 -10 10 -10 16 0 14 7 11 14 -7z m161 6 c3
-5 1 -10 -4 -10 -6 0 -11 5 -11 10 0 6 2 10 4 10 3 0 8 -4 11 -10z m-30 -9 c3
-5 1 -12 -5 -16 -5 -3 -10 1 -10 9 0 18 6 21 15 7z m395 -73 c0 -16 -4 -28
-10 -28 -5 0 -10 19 -10 43 0 31 3 38 10 27 5 -8 10 -27 10 -42z m60 -22 c0
-39 -6 -30 -13 19 -4 27 -3 35 3 25 5 -8 10 -28 10 -44z m287 24 c-1 -21 -10
-18 -13 5 -1 8 2 15 6 15 5 0 8 -9 7 -20z m33 0 c0 -11 -4 -20 -9 -20 -5 0 -7
9 -4 20 3 11 7 20 9 20 2 0 4 -9 4 -20z m50 -27 c0 -32 -5 -28 -14 10 -4 19
-3 26 4 22 5 -3 10 -18 10 -32z m329 -18 c0 -5 -4 -3 -9 5 -5 8 -9 22 -9 30 0
16 17 -16 18 -35z m102 33 c0 -7 2 -21 4 -31 2 -9 0 -15 -5 -12 -11 7 -19 55
-9 55 5 0 9 -6 10 -12z m276 -20 c-3 -8 -6 -5 -6 6 -1 11 2 17 5 13 3 -3 4
-12 1 -19z m-3026 -5 c13 -16 12 -17 -3 -4 -17 13 -22 21 -14 21 2 0 10 -8 17
-17z m2273 -18 c3 -8 1 -15 -4 -15 -6 0 -10 7 -10 15 0 8 2 15 4 15 2 0 6 -7
10 -15z m-384 -2 c0 -5 -5 -15 -10 -23 -8 -12 -10 -11 -10 8 0 12 5 22 10 22
6 0 10 -3 10 -7z m207 -50 c-3 -10 -5 -2 -5 17 0 19 2 27 5 18 2 -10 2 -26 0
-35z m-287 27 c0 -5 -2 -10 -4 -10 -3 0 -8 5 -11 10 -3 6 -1 10 4 10 6 0 11
-4 11 -10z m637 -22 c-3 -8 -6 -5 -6 6 -1 11 2 17 5 13 3 -3 4 -12 1 -19z
m553 1 c0 -6 -4 -7 -10 -4 -5 3 -10 11 -10 16 0 6 5 7 10 4 6 -3 10 -11 10
-16z m-1978 -11 c-6 -6 -15 -8 -19 -4 -4 4 -1 11 7 16 19 12 27 3 12 -12z
m978 12 c0 -5 -2 -10 -4 -10 -3 0 -8 5 -11 10 -3 6 -1 10 4 10 6 0 11 -4 11
-10z m1147 -37 c-3 -10 -5 -2 -5 17 0 19 2 27 5 18 2 -10 2 -26 0 -35z m-3167
-63 c0 -5 -4 -10 -10 -10 -5 0 -10 5 -10 10 0 6 5 10 10 10 6 0 10 -4 10 -10z
m-710 -107 c0 -13 -4 -23 -9 -23 -10 0 -19 40 -13 59 6 19 22 -7 22 -36z
m1743 41 c3 -3 3 -12 0 -20 -4 -11 -9 -12 -19 -3 -8 6 -11 15 -8 20 6 10 18
12 27 3z m1907 -13 c0 -6 -4 -13 -10 -16 -5 -3 -10 1 -10 9 0 9 5 16 10 16 6
0 10 -4 10 -9z m-1824 -42 c-9 -20 -15 -27 -16 -16 0 20 19 61 26 54 2 -2 -2
-19 -10 -38z m44 12 c0 -16 -12 -41 -20 -41 -4 0 -5 11 -2 25 4 23 22 36 22
16z m10 -41 c-6 -11 -15 -20 -20 -20 -6 0 -5 9 2 20 7 11 16 20 21 20 4 0 3
-9 -3 -20z m-2309 -61 c-5 -13 -10 -19 -10 -12 -1 15 10 45 15 40 3 -2 0 -15
-5 -28z m2475 -41 c-3 -13 -5 -25 -5 -27 -1 -3 -6 0 -13 7 -8 8 -8 15 2 27 17
21 21 19 16 -7z m-2853 -18 c-7 -28 -13 -25 -13 6 0 14 4 23 9 20 5 -3 7 -15
4 -26z m2707 -31 c0 -11 -4 -17 -10 -14 -5 3 -10 13 -10 21 0 8 5 14 10 14 6
0 10 -9 10 -21z m125 -24 c-1 -19 -4 -38 -7 -40 -7 -8 -19 66 -12 77 11 17 22
-3 19 -37z m85 14 c0 -11 -4 -18 -10 -14 -5 3 -7 12 -3 20 7 21 13 19 13 -6z
m-940 1 c0 -5 -2 -10 -4 -10 -3 0 -8 5 -11 10 -3 6 -1 10 4 10 6 0 11 -4 11
-10z m877 -32 c-3 -8 -6 -5 -6 6 -1 11 2 17 5 13 3 -3 4 -12 1 -19z m-3020
-10 c-3 -8 -6 -5 -6 6 -1 11 2 17 5 13 3 -3 4 -12 1 -19z m2137 6 c8 -22 8
-24 -7 -24 -7 0 -13 9 -14 20 -2 24 12 27 21 4z m601 6 c3 -5 -1 -10 -9 -10
-9 0 -16 5 -16 10 0 6 4 10 9 10 6 0 13 -4 16 -10z m232 -10 c1 -11 -2 -18 -8
-15 -11 8 -11 3 1 -29 5 -15 6 -26 0 -26 -13 0 -22 35 -14 64 7 31 19 34 21 6z
m-2870 -12 c-3 -8 -6 -5 -6 6 -1 11 2 17 5 13 3 -3 4 -12 1 -19z m2904 -55
c-9 -16 -10 -16 -11 4 0 12 3 30 7 40 7 16 8 16 11 -4 2 -12 -1 -30 -7 -40z
m-91 22 c0 -8 -4 -17 -10 -20 -6 -4 -10 5 -10 20 0 15 4 24 10 20 6 -3 10 -12
10 -20z m147 8 c0 -10 -4 -23 -8 -29 -5 -6 -7 -20 -4 -32 2 -12 1 -22 -3 -22
-4 0 -6 -18 -4 -40 3 -26 0 -40 -8 -40 -7 0 -9 -8 -5 -21 4 -12 3 -19 -1 -16
-7 4 -9 -39 -5 -96 1 -4 7 -2 15 5 10 9 11 20 4 37 -7 21 -7 22 7 11 22 -18
19 -67 -5 -80 -16 -8 -21 -6 -31 11 -13 26 -20 169 -7 169 5 0 8 6 7 13 -4 33
2 68 11 62 6 -3 11 3 11 14 1 12 3 26 4 31 1 6 3 17 4 25 2 21 18 19 18 -2z
m-317 -14 c15 -28 2 -39 -16 -15 -9 13 -14 15 -14 6 0 -7 -2 -11 -5 -8 -8 7 5
38 16 38 4 0 13 -9 19 -21z m-690 1 c0 -5 -4 -10 -10 -10 -5 0 -10 5 -10 10 0
6 5 10 10 10 6 0 10 -4 10 -10z m720 0 c0 -5 8 -10 18 -10 14 0 15 -2 2 -10
-22 -14 -27 -12 -33 10 -3 11 -1 20 4 20 5 0 9 -4 9 -10z m160 -50 c6 -11 8
-20 6 -20 -3 0 -10 9 -16 20 -6 11 -8 20 -6 20 3 0 10 -9 16 -20z m-200 -5
c19 -22 8 -25 -12 -3 -10 10 -14 18 -9 18 5 0 14 -7 21 -15z m81 -15 c5 0 9
-5 9 -11 0 -15 -43 -7 -48 10 -3 10 0 12 12 8 10 -4 22 -7 27 -7z m-491 -5 c0
-2 -10 -10 -22 -16 -21 -11 -22 -11 -9 4 13 16 31 23 31 12z m664 -48 c-4 -26
-11 -47 -16 -47 -5 0 -6 10 -3 23 5 17 4 19 -4 7 -10 -13 -11 -13 -12 0 0 8
-2 23 -4 33 -2 9 1 15 6 11 5 -3 7 -10 4 -15 -4 -5 -2 -9 4 -9 6 0 13 11 17
25 10 41 15 23 8 -28z m-74 15 c0 -15 -2 -15 -10 -2 -13 20 -13 33 0 25 6 -3
10 -14 10 -23z m-195 9 c-9 -8 -36 -10 -30 -2 2 4 11 8 20 8 8 0 13 -3 10 -6z
m372 -69 c-16 -20 -20 -6 -12 35 l8 38 7 -30 c3 -16 2 -36 -3 -43z m-270 52
c-3 -3 -12 -4 -19 -1 -8 3 -5 6 6 6 11 1 17 -2 13 -5z m247 -9 c-4 -8 -8 -15
-10 -15 -2 0 -4 7 -4 15 0 8 4 15 10 15 5 0 7 -7 4 -15z m-224 -15 c0 -5 -9
-9 -20 -7 -31 5 -36 17 -7 17 15 0 27 -4 27 -10z m101 -2 c1 -7 1 -17 0 -22
-1 -5 4 -13 11 -17 7 -4 9 -11 5 -15 -4 -4 -12 -3 -18 3 -13 13 -19 63 -8 63
5 0 10 -6 10 -12z m197 -33 c-1 -25 -6 -39 -10 -32 -6 9 -10 9 -16 -1 -5 -7
-16 -10 -25 -6 -22 8 -12 24 14 24 11 0 18 4 14 10 -5 7 14 50 22 50 1 0 2
-20 1 -45z m62 -4 c-11 -21 -30 -37 -30 -25 0 8 30 44 37 44 2 0 -1 -9 -7 -19z
m-422 2 c-10 -2 -26 -2 -35 0 -10 3 -2 5 17 5 19 0 27 -2 18 -5z m89 -15 c-3
-8 -6 -5 -6 6 -1 11 2 17 5 13 3 -3 4 -12 1 -19z m187 13 c3 -5 -1 -14 -8 -20
-12 -10 -13 -8 -9 8 6 23 9 25 17 12z m-1034 -15 c-1 -5 4 -12 10 -16 7 -4 9
-13 5 -20 -6 -9 -12 -6 -21 11 -16 29 -17 42 -3 37 6 -2 10 -7 9 -12z m1182
-28 c-18 -19 -24 -20 -34 -9 -7 8 -8 11 -2 8 6 -4 19 2 29 13 10 11 21 18 24
15 2 -3 -5 -15 -17 -27z m78 17 c-7 -9 -15 -13 -17 -11 -7 7 7 26 19 26 6 0 6
-6 -2 -15z m-425 -23 c-3 -3 -11 0 -18 7 -9 10 -8 11 6 5 10 -3 15 -9 12 -12z
m40 8 c3 -5 1 -10 -4 -10 -6 0 -11 5 -11 10 0 6 2 10 4 10 3 0 8 -4 11 -10z
m45 6 c0 -2 -7 -6 -15 -10 -8 -3 -15 -1 -15 4 0 6 7 10 15 10 8 0 15 -2 15 -4z
m9 -45 c-15 -5 -22 6 -14 19 6 9 10 9 16 -1 5 -8 4 -15 -2 -18z m136 19 c3 -5
1 -10 -4 -10 -6 0 -11 5 -11 10 0 6 2 10 4 10 3 0 8 -4 11 -10z m29 -1 c-3 -6
-1 -14 5 -18 8 -5 4 -14 -11 -27 -13 -10 -17 -12 -11 -3 7 8 10 25 6 37 -3 13
-1 22 6 22 7 0 9 -5 5 -11z m100 -26 c-13 -14 -27 -24 -30 -20 -8 7 37 57 47
51 4 -2 -3 -16 -17 -31z m71 27 c-3 -5 -1 -10 5 -10 6 0 8 -4 5 -10 -10 -16
-23 -11 -20 8 5 23 4 22 11 22 3 0 2 -4 -1 -10z m-1296 -86 c-14 -27 -29 -22
-29 9 0 16 3 19 9 8 6 -10 11 -1 17 30 l9 44 3 -34 c2 -19 -2 -45 -9 -57z
m819 79 c-10 -2 -28 -2 -40 0 -13 2 -5 4 17 4 22 1 32 -1 23 -4z m55 0 c-7 -2
-19 -2 -25 0 -7 3 -2 5 12 5 14 0 19 -2 13 -5z m44 1 c-3 -3 -12 -4 -19 -1 -8
3 -5 6 6 6 11 1 17 -2 13 -5z m263 -14 c0 -5 -5 -10 -11 -10 -5 0 -7 5 -4 10
3 6 8 10 11 10 2 0 4 -4 4 -10z m-280 -16 c0 -2 -15 -4 -32 -4 -23 0 -29 3
-19 9 12 8 51 4 51 -5z m-77 -1 c-7 -2 -21 -2 -30 0 -10 3 -4 5 12 5 17 0 24
-2 18 -5z m413 -38 c-27 -35 -46 -45 -46 -24 0 5 5 7 10 4 6 -3 10 -1 10 6 0
15 41 61 48 54 3 -2 -7 -20 -22 -40z m-396 13 c0 -4 -19 -8 -42 -7 -36 1 -39
2 -18 9 31 9 60 8 60 -2z m30 2 c0 -5 -2 -10 -4 -10 -3 0 -8 5 -11 10 -3 6 -1
10 4 10 6 0 11 -4 11 -10z m251 -33 c-29 -28 -31 -29 -20 -7 15 27 41 51 48
44 3 -3 -10 -19 -28 -37z m-1162 -37 c1 -8 -4 -22 -10 -30 -9 -12 -10 -12 -5
4 8 25 -3 58 -16 50 -8 -5 -9 -1 -5 10 4 10 7 23 8 29 1 16 28 -44 28 -63z
m1231 66 c0 -3 -4 -8 -10 -11 -5 -3 -10 -1 -10 4 0 6 5 11 10 11 6 0 10 -2 10
-4z m-95 -16 c-3 -5 -14 -10 -23 -10 -15 0 -15 2 -2 10 20 13 33 13 25 0z
m235 -10 c-6 -11 -16 -20 -22 -20 -6 0 -3 9 7 20 10 11 20 20 22 20 2 0 -1 -9
-7 -20z m-170 4 c0 -3 -9 -17 -20 -31 -15 -19 -20 -21 -20 -9 0 9 5 16 10 16
6 0 10 7 10 15 0 8 5 15 10 15 6 0 10 -3 10 -6z m-357 -22 c10 -10 14 -22 10
-27 -5 -4 0 -5 9 -2 12 4 19 -1 23 -14 4 -11 4 -23 2 -26 -9 -8 -28 7 -22 18
4 5 -4 9 -16 9 -18 0 -19 -3 -9 -14 8 -11 9 -32 4 -73 -8 -54 -8 -56 -14 -23
-3 19 -2 40 2 46 5 6 4 23 -2 38 -5 14 -6 26 -2 26 4 0 0 5 -8 10 -13 9 -13
11 0 20 11 7 5 10 -25 11 -39 1 -39 2 -10 9 17 4 33 8 36 9 3 0 13 -7 22 -17z
m53 3 c18 -14 18 -15 -5 -11 -14 1 -27 8 -29 14 -5 16 10 15 34 -3z m285 -67
c-78 -72 -82 -61 -8 19 22 23 44 40 50 36 6 -3 -13 -28 -42 -55z m-384 26 c-3
-3 -12 -4 -19 -1 -8 3 -5 6 6 6 11 1 17 -2 13 -5z m333 2 c0 -3 -4 -8 -10 -11
-5 -3 -10 -1 -10 4 0 6 5 11 10 11 6 0 10 -2 10 -4z m120 1 c0 -10 -58 -66
-63 -61 -7 7 43 64 55 64 5 0 8 -1 8 -3z m-441 -26 c9 -6 10 -11 2 -15 -6 -4
-9 -18 -7 -32 3 -13 1 -24 -4 -24 -15 0 -21 18 -8 23 7 3 -5 6 -26 6 -39 1
-43 15 -5 17 35 3 39 4 39 13 0 5 -8 12 -17 14 -13 3 -14 5 -3 6 8 0 21 -3 29
-8z m505 -70 c-22 -28 -43 -50 -47 -51 -5 0 6 18 25 41 18 22 37 47 43 54 5 8
11 12 13 10 2 -2 -13 -26 -34 -54z m25 -58 c-27 -51 -62 -96 -52 -68 7 21 61
105 68 105 2 0 -5 -17 -16 -37z m-515 -62 c-6 -7 -34 28 -34 42 0 6 9 0 20
-13 11 -13 17 -26 14 -29z m604 -52 c-23 -27 -48 -59 -54 -70 -19 -34 -26 -35
-12 -2 14 34 87 122 101 123 5 0 -11 -23 -35 -51z m136 -42 c-26 -43 -49 -76
-51 -74 -1 2 18 40 45 84 26 45 48 78 50 74 1 -4 -19 -42 -44 -84z m-59 73 c3
-5 1 -10 -4 -10 -6 0 -11 5 -11 10 0 6 2 10 4 10 3 0 8 -4 11 -10z m150 -75
c-10 -19 -21 -35 -26 -35 -5 0 -5 8 0 18 4 9 14 32 22 51 9 20 15 27 17 17 2
-8 -4 -31 -13 -51z m28 0 c-3 -9 -8 -14 -10 -11 -3 3 -2 9 2 15 9 16 15 13 8
-4z m57 -60 c-25 -50 -40 -65 -40 -41 0 17 49 90 56 83 2 -2 -5 -21 -16 -42z
m-2193 -7 c-3 -8 -6 -5 -6 6 -1 11 2 17 5 13 3 -3 4 -12 1 -19z m2217 -2 c-3
-8 -7 -29 -8 -47 -3 -35 -20 -50 -29 -26 -6 16 22 87 35 87 4 0 5 -6 2 -14z
m36 -21 c0 -8 -4 -15 -8 -15 -5 0 -9 7 -9 15 0 8 4 15 9 15 4 0 8 -7 8 -15z
m-980 -38 c0 -5 -4 -5 -10 -2 -5 3 -10 14 -10 23 0 15 2 15 10 2 5 -8 10 -19
10 -23z m-1060 -18 c0 -11 -4 -18 -9 -14 -6 3 -9 14 -8 25 2 24 17 15 17 -11z
m50 -18 c-1 -10 -6 -7 -15 9 -19 33 -18 50 0 26 8 -11 15 -27 15 -35z m40 19
c6 -11 8 -20 6 -20 -3 0 -10 9 -16 20 -6 11 -8 20 -6 20 3 0 10 -9 16 -20z
m1965 -12 c-4 -18 -12 -37 -17 -43 -7 -7 -8 -2 -3 15 3 14 9 33 11 43 9 30 16
18 9 -15z m14 -45 c-34 -58 -43 -63 -18 -10 13 26 27 47 32 47 5 0 -1 -17 -14
-37z m-2054 17 c3 -5 1 -10 -4 -10 -6 0 -11 5 -11 10 0 6 2 10 4 10 3 0 8 -4
11 -10z m1019 -6 c3 -8 2 -12 -4 -9 -6 3 -10 10 -10 16 0 14 7 11 14 -7z m-44
-9 c0 -8 -4 -15 -10 -15 -5 0 -10 7 -10 15 0 8 5 15 10 15 6 0 10 -7 10 -15z
m-890 -50 c0 -5 -5 -3 -10 5 -5 8 -10 20 -10 25 0 6 5 3 10 -5 5 -8 10 -19 10
-25z m897 0 c9 -24 -1 -27 -15 -5 -8 13 -8 20 -2 20 6 0 13 -7 17 -15z m-1147
-30 c0 -5 -5 -3 -10 5 -5 8 -10 20 -10 25 0 6 5 3 10 -5 5 -8 10 -19 10 -25z
m2187 -7 c-3 -8 -6 -5 -6 6 -1 11 2 17 5 13 3 -3 4 -12 1 -19z m-977 -36 c-6
-2 -20 4 -31 14 -15 13 -17 19 -7 26 8 5 20 0 31 -14 12 -15 15 -24 7 -26z
m-930 13 c11 -13 10 -14 -4 -9 -9 3 -16 10 -16 15 0 13 6 11 20 -6z m480 -50
c-7 -45 -7 -46 -9 -13 -1 32 8 74 14 66 1 -2 -1 -25 -5 -53z m-610 -49 c-1
-19 -29 38 -29 59 0 14 4 10 14 -14 8 -18 15 -38 15 -45z m188 38 c-4 -3 -12
5 -18 18 -12 22 -12 22 6 6 10 -10 15 -20 12 -24z m1107 -14 c3 -5 1 -10 -4
-10 -6 0 -11 5 -11 10 0 6 2 10 4 10 3 0 8 -4 11 -10z m-1294 -122 c21 -41 23
-48 11 -48 -5 0 -16 15 -25 33 -9 17 -26 48 -38 67 l-23 35 28 -25 c15 -14 37
-42 47 -62z"/>
<path d="M3955 7060 c-3 -5 -1 -10 4 -10 6 0 11 5 11 10 0 6 -2 10 -4 10 -3 0
-8 -4 -11 -10z"/>
<path d="M3396 7065 c-3 -8 -1 -15 4 -15 6 0 10 7 10 15 0 8 -2 15 -4 15 -2 0
-6 -7 -10 -15z"/>
<path d="M4085 6980 c-13 -5 -14 -9 -5 -9 8 0 24 4 35 9 13 5 14 9 5 9 -8 0
-24 -4 -35 -9z"/>
<path d="M3306 6902 c-2 -4 -1 -14 3 -21 6 -10 10 -9 14 3 6 16 -8 32 -17 18z"/>
<path d="M4038 6913 c7 -3 16 -2 19 1 4 3 -2 6 -13 5 -11 0 -14 -3 -6 -6z"/>
<path d="M4078 6913 c6 -2 18 -2 25 0 6 3 1 5 -13 5 -14 0 -19 -2 -12 -5z"/>
<path d="M5220 6256 c0 -2 7 -9 15 -16 9 -7 15 -8 15 -2 0 5 -7 12 -15 16 -8
3 -15 4 -15 2z"/>
<path d="M4555 5620 c10 -11 20 -20 23 -20 3 0 -3 9 -13 20 -10 11 -20 20 -23
20 -3 0 3 -9 13 -20z"/>
<path d="M3046 5196 c5 -22 4 -27 -6 -21 -8 5 -11 3 -9 -4 3 -7 7 -11 11 -9 3
2 16 -6 28 -17 l23 -20 -14 25 c-7 14 -14 31 -15 39 -2 7 -8 19 -14 25 -9 8
-10 4 -4 -18z"/>
<path d="M3075 5211 c-3 -5 -2 -12 3 -15 5 -3 9 1 9 9 0 17 -3 19 -12 6z"/>
<path d="M3100 5183 c0 -5 5 -15 10 -23 8 -12 10 -11 10 8 0 12 -4 22 -10 22
-5 0 -10 -3 -10 -7z"/>
<path d="M4466 7438 c3 -5 10 -6 15 -3 13 9 11 12 -6 12 -8 0 -12 -4 -9 -9z"/>
<path d="M4778 7413 c6 -2 18 -2 25 0 6 3 1 5 -13 5 -14 0 -19 -2 -12 -5z"/>
<path d="M4585 7360 c-3 -5 1 -10 10 -10 9 0 13 5 10 10 -3 6 -8 10 -10 10 -2
0 -7 -4 -10 -10z"/>
<path d="M4680 7360 c-9 -6 -10 -10 -3 -10 6 0 15 5 18 10 8 12 4 12 -15 0z"/>
<path d="M4491 7284 c0 -11 3 -14 6 -6 3 7 2 16 -1 19 -3 4 -6 -2 -5 -13z"/>
<path d="M3689 7253 l-34 -38 38 34 c20 19 37 36 37 38 0 8 -8 0 -41 -34z"/>
<path d="M4630 7220 c0 -5 5 -10 11 -10 5 0 7 5 4 10 -3 6 -8 10 -11 10 -2 0
-4 -4 -4 -10z"/>
<path d="M3550 7190 c-6 -11 -8 -20 -6 -20 3 0 10 9 16 20 6 11 8 20 6 20 -3
0 -10 -9 -16 -20z"/>
<path d="M4190 7185 c-11 -13 -11 -18 0 -28 10 -9 11 -9 6 1 -4 7 -2 19 4 27
7 8 10 15 7 15 -2 0 -10 -7 -17 -15z"/>
<path d="M4153 7168 c-15 -20 -25 -38 -20 -38 3 0 12 11 21 25 17 26 16 35 -1
13z"/>
<path d="M4605 7169 c-4 -6 -5 -12 -2 -15 2 -3 7 2 10 11 7 17 1 20 -8 4z"/>
<path d="M4600 6996 c0 -2 7 -6 15 -10 8 -3 15 -1 15 4 0 6 -7 10 -15 10 -8 0
-15 -2 -15 -4z"/>
<path d="M3199 6976 c-2 -3 -28 -6 -57 -7 -41 -2 -52 -6 -52 -20 0 -9 7 -22
15 -29 9 -7 13 -15 10 -18 -3 -3 -14 3 -25 13 -11 10 -23 16 -26 13 -4 -5 107
-95 186 -152 13 -10 13 -9 1 7 -10 13 -10 17 -1 17 10 0 10 3 0 15 -7 9 -21
13 -30 10 -9 -3 -23 1 -30 10 -15 18 1 20 19 3 10 -11 11 -9 5 7 -7 19 -6 19
17 -2 24 -22 51 -25 66 -8 5 4 2 5 -6 0 -11 -6 -13 -4 -8 9 5 12 3 16 -5 13
-7 -2 -12 -10 -10 -18 2 -7 -18 7 -44 30 -29 28 -49 39 -53 32 -5 -7 -19 0
-42 20 -18 17 -27 27 -19 23 8 -4 23 -14 33 -22 12 -11 21 -12 28 -5 8 8 5 13
-10 18 -33 10 -25 25 14 25 19 0 35 5 35 10 0 11 -4 13 -11 6z m-39 -101 c13
-14 19 -25 13 -25 -5 0 -20 11 -33 25 -13 14 -19 25 -13 25 5 0 20 -11 33 -25z
m40 0 c7 -8 8 -15 2 -15 -5 0 -15 7 -22 15 -7 8 -8 15 -2 15 5 0 15 -7 22 -15z"/>
<path d="M3080 6847 c0 -3 12 -12 26 -22 15 -9 23 -12 20 -6 -7 11 -46 35 -46
28z"/>
<path d="M3271 6751 c-10 -6 -9 -10 3 -14 8 -3 18 -2 21 3 8 13 -9 20 -24 11z"/>
<path d="M4518 6663 c7 -3 16 -2 19 1 4 3 -2 6 -13 5 -11 0 -14 -3 -6 -6z"/>
<path d="M4520 6606 c0 -2 7 -7 16 -10 8 -3 12 -2 9 4 -6 10 -25 14 -25 6z"/>
<path d="M5505 6433 c17 -8 38 -22 47 -30 9 -8 22 -13 28 -11 14 4 -69 58 -90
58 -8 -1 -1 -8 15 -17z"/>
<path d="M5400 6357 c0 -4 16 -30 35 -59 20 -28 34 -42 32 -31 -3 20 -66 105
-67 90z"/>
<path d="M4300 6346 c0 -2 11 -11 25 -20 14 -9 25 -13 25 -8 0 5 -11 14 -25
20 -14 6 -25 10 -25 8z"/>
<path d="M5360 6310 c6 -11 13 -20 16 -20 2 0 0 9 -6 20 -6 11 -13 20 -16 20
-2 0 0 -9 6 -20z"/>
<path d="M4797 5899 c21 -84 33 -97 17 -18 -7 34 -17 66 -23 72 -5 5 -2 -19 6
-54z"/>
<path d="M5135 5860 c3 -5 8 -10 11 -10 2 0 4 5 4 10 0 6 -5 10 -11 10 -5 0
-7 -4 -4 -10z"/>
<path d="M2667 5774 c-3 -3 -3 -13 0 -22 4 -10 2 -13 -5 -8 -18 11 -25 -15 -8
-32 8 -9 17 -14 18 -11 2 2 16 20 33 39 l30 35 -36 -33 c-23 -21 -39 -30 -43
-23 -4 6 -3 11 3 11 14 0 33 38 22 44 -4 3 -11 3 -14 0z"/>
<path d="M4890 5761 c0 -6 4 -13 10 -16 6 -3 7 1 4 9 -7 18 -14 21 -14 7z"/>
<path d="M2711 5726 l-22 -23 24 2 c27 3 81 35 73 43 -3 3 -13 -1 -22 -8 -12
-11 -17 -11 -23 -2 -5 9 -14 5 -30 -12z"/>
<path d="M3447 5653 c-4 -3 -7 -11 -7 -17 0 -6 5 -5 12 2 6 6 9 14 7 17 -3 3
-9 2 -12 -2z"/>
<path d="M4740 5566 c0 -2 8 -10 18 -17 15 -13 16 -12 3 4 -13 16 -21 21 -21
13z"/>
<path d="M3315 5409 c-11 -17 1 -21 15 -4 8 9 8 15 2 15 -6 0 -14 -5 -17 -11z"/>
<path d="M1915 5349 c-4 -6 -5 -12 -2 -15 2 -3 7 2 10 11 7 17 1 20 -8 4z"/>
<path d="M4045 5000 c-3 -6 1 -7 9 -4 18 7 21 14 7 14 -6 0 -13 -4 -16 -10z"/>
<path d="M4340 4859 c0 -5 5 -7 10 -4 6 3 10 8 10 11 0 2 -4 4 -10 4 -5 0 -10
-5 -10 -11z"/>
<path d="M4811 4784 c0 -11 3 -14 6 -6 3 7 2 16 -1 19 -3 4 -6 -2 -5 -13z"/>
<path d="M4910 4791 c0 -6 4 -13 10 -16 6 -3 7 1 4 9 -7 18 -14 21 -14 7z"/>
<path d="M5022 4753 c6 -15 18 -35 25 -43 11 -12 11 -8 0 24 -7 22 -19 42 -26
44 -9 3 -9 -3 1 -25z"/>
<path d="M5170 4681 c0 -6 4 -13 10 -16 6 -3 7 1 4 9 -7 18 -14 21 -14 7z"/>
<path d="M4380 4576 c0 -2 8 -10 18 -17 15 -13 16 -12 3 4 -13 16 -21 21 -21
13z"/>
<path d="M1505 4560 c-3 -5 -1 -10 4 -10 6 0 11 5 11 10 0 6 -2 10 -4 10 -3 0
-8 -4 -11 -10z"/>
<path d="M1300 4471 c0 -17 2 -31 4 -31 8 0 13 51 5 56 -5 3 -9 -9 -9 -25z"/>
<path d="M1410 4458 c0 -9 5 -20 10 -23 13 -8 13 5 0 25 -8 13 -10 13 -10 -2z"/>
<path d="M1190 4381 c0 -5 7 -11 14 -14 10 -4 13 -1 9 9 -6 15 -23 19 -23 5z"/>
<path d="M1082 4371 c-11 -7 -11 -9 0 -14 9 -3 15 1 15 9 0 8 -1 14 -1 14 -1
0 -7 -4 -14 -9z"/>
<path d="M3961 3957 c-1 -11 -6 -15 -13 -11 -7 5 -8 3 -3 -5 10 -16 29 2 22
21 -4 8 -6 7 -6 -5z"/>
<path d="M4206 3767 c3 -10 9 -15 12 -12 3 3 0 11 -7 18 -10 9 -11 8 -5 -6z"/>
<path d="M4243 3748 c-2 -18 0 -20 7 -8 12 18 13 30 2 30 -4 0 -9 -10 -9 -22z"/>
<path d="M4270 3640 c0 -5 5 -10 10 -10 6 0 10 5 10 10 0 6 -4 10 -10 10 -5 0
-10 -4 -10 -10z"/>
<path d="M4290 3615 c-8 -45 -8 -47 2 -37 5 5 8 18 5 28 -3 11 -6 15 -7 9z"/>
<path d="M4342 3573 c-3 -44 3 -42 11 5 4 17 3 32 -1 32 -4 0 -9 -17 -10 -37z"/>
<path d="M4451 3529 c0 -19 4 -43 9 -54 6 -13 7 -2 3 30 -7 59 -13 72 -12 24z"/>
<path d="M4571 3537 c-1 -21 25 -87 34 -87 3 0 3 5 -1 11 -4 7 -13 30 -20 53
-7 23 -13 33 -13 23z"/>
<path d="M4696 3500 c7 -28 12 -35 18 -29 2 2 -2 15 -10 29 l-15 25 7 -25z"/>
<path d="M4491 3495 c0 -11 4 -27 9 -35 9 -13 10 -13 9 0 0 8 -4 24 -9 35 l-9
20 0 -20z"/>
<path d="M4406 3486 c3 -8 14 -14 24 -13 17 1 18 12 2 12 -4 0 -13 4 -19 8 -9
6 -11 3 -7 -7z"/>
<path d="M4721 3443 c7 -12 15 -20 18 -17 3 2 -3 12 -13 22 -17 16 -18 16 -5
-5z"/>
<path d="M4606 3427 c3 -10 9 -15 12 -12 3 3 0 11 -7 18 -10 9 -11 8 -5 -6z"/>
<path d="M4538 3405 c2 -14 6 -25 8 -25 2 0 4 11 4 25 0 14 -4 25 -9 25 -4 0
-6 -11 -3 -25z"/>
<path d="M3491 3234 c1 -21 5 -52 9 -69 6 -20 7 -8 4 35 -6 72 -15 96 -13 34z"/>
<path d="M4117 3239 c7 -7 15 -10 18 -7 3 3 -2 9 -12 12 -14 6 -15 5 -6 -5z"/>
<path d="M2790 3120 c6 -11 15 -20 20 -20 6 0 2 9 -7 20 -10 11 -19 20 -21 20
-1 0 2 -9 8 -20z"/>
</g>
</svg>
